<mxfile modified="2019-10-15T16:41:05.525Z" host="www.draw.io" agent="Mozilla/5.0 (Windows NT 10.0; Win64; x64) AppleWebKit/537.36 (KHTML, like Gecko) Chrome/77.0.3865.120 Safari/537.36" etag="znsfe3WSlWBUP_q1uEDm" version="12.1.1" type="github" pages="1">
  <diagram name="Page-1" id="2a216829-ef6e-dabb-86c1-c78162f3ba2b">
    <mxGraphModel dx="1173" dy="650" grid="1" gridSize="10" guides="1" tooltips="1" connect="1" arrows="1" fold="1" page="0" pageScale="1" pageWidth="850" pageHeight="1100" background="#ffffff" math="0" shadow="0">
      <root>
        <mxCell id="0"/>
        <mxCell id="1" parent="0"/>
        <mxCell id="18ak5usq0MqdyDjZxHy--1" value="" style="endArrow=none;html=1;" parent="1" edge="1">
          <mxGeometry width="50" height="50" relative="1" as="geometry">
            <mxPoint x="80" y="760" as="sourcePoint"/>
            <mxPoint x="80" y="360" as="targetPoint"/>
          </mxGeometry>
        </mxCell>
        <mxCell id="18ak5usq0MqdyDjZxHy--2" value="" style="endArrow=none;html=1;" parent="1" edge="1">
          <mxGeometry width="50" height="50" relative="1" as="geometry">
            <mxPoint x="80" y="760" as="sourcePoint"/>
            <mxPoint x="1200" y="760" as="targetPoint"/>
          </mxGeometry>
        </mxCell>
        <mxCell id="18ak5usq0MqdyDjZxHy--3" value="" style="endArrow=none;html=1;" parent="1" edge="1">
          <mxGeometry width="50" height="50" relative="1" as="geometry">
            <mxPoint x="1200" y="760" as="sourcePoint"/>
            <mxPoint x="1200" y="360" as="targetPoint"/>
          </mxGeometry>
        </mxCell>
        <mxCell id="18ak5usq0MqdyDjZxHy--4" value="" style="endArrow=none;html=1;" parent="1" edge="1">
          <mxGeometry width="50" height="50" relative="1" as="geometry">
            <mxPoint x="240" y="760" as="sourcePoint"/>
            <mxPoint x="240" y="600" as="targetPoint"/>
          </mxGeometry>
        </mxCell>
        <mxCell id="18ak5usq0MqdyDjZxHy--5" value="" style="endArrow=none;html=1;" parent="1" edge="1">
          <mxGeometry width="50" height="50" relative="1" as="geometry">
            <mxPoint x="400" y="760" as="sourcePoint"/>
            <mxPoint x="400" y="360" as="targetPoint"/>
          </mxGeometry>
        </mxCell>
        <mxCell id="18ak5usq0MqdyDjZxHy--7" value="" style="endArrow=none;html=1;" parent="1" edge="1">
          <mxGeometry width="50" height="50" relative="1" as="geometry">
            <mxPoint x="720" y="760" as="sourcePoint"/>
            <mxPoint x="720" y="360" as="targetPoint"/>
          </mxGeometry>
        </mxCell>
        <mxCell id="18ak5usq0MqdyDjZxHy--8" value="" style="endArrow=none;html=1;" parent="1" edge="1">
          <mxGeometry width="50" height="50" relative="1" as="geometry">
            <mxPoint x="880" y="760" as="sourcePoint"/>
            <mxPoint x="880" y="600" as="targetPoint"/>
          </mxGeometry>
        </mxCell>
        <mxCell id="18ak5usq0MqdyDjZxHy--9" value="" style="endArrow=none;html=1;" parent="1" edge="1">
          <mxGeometry width="50" height="50" relative="1" as="geometry">
            <mxPoint x="1040" y="760" as="sourcePoint"/>
            <mxPoint x="1040" y="360" as="targetPoint"/>
          </mxGeometry>
        </mxCell>
        <mxCell id="18ak5usq0MqdyDjZxHy--10" value="" style="endArrow=none;html=1;" parent="1" edge="1">
          <mxGeometry width="50" height="50" relative="1" as="geometry">
            <mxPoint y="400" as="sourcePoint"/>
            <mxPoint x="80" y="400" as="targetPoint"/>
          </mxGeometry>
        </mxCell>
        <mxCell id="18ak5usq0MqdyDjZxHy--16" value="c" style="text;html=1;resizable=0;points=[];autosize=1;align=left;verticalAlign=top;spacingTop=-4;" parent="1" vertex="1">
          <mxGeometry x="30" y="380" width="20" height="20" as="geometry"/>
        </mxCell>
        <mxCell id="18ak5usq0MqdyDjZxHy--25" value="y0" style="text;html=1;resizable=0;points=[];autosize=1;align=left;verticalAlign=top;spacingTop=-4;" parent="1" vertex="1">
          <mxGeometry x="30" y="400" width="30" height="20" as="geometry"/>
        </mxCell>
        <mxCell id="18ak5usq0MqdyDjZxHy--26" value="" style="endArrow=none;html=1;" parent="1" edge="1">
          <mxGeometry width="50" height="50" relative="1" as="geometry">
            <mxPoint y="420" as="sourcePoint"/>
            <mxPoint x="80" y="420" as="targetPoint"/>
          </mxGeometry>
        </mxCell>
        <mxCell id="18ak5usq0MqdyDjZxHy--27" value="y1" style="text;html=1;resizable=0;points=[];autosize=1;align=left;verticalAlign=top;spacingTop=-4;" parent="1" vertex="1">
          <mxGeometry x="30" y="420" width="30" height="20" as="geometry"/>
        </mxCell>
        <mxCell id="18ak5usq0MqdyDjZxHy--28" value="" style="endArrow=none;html=1;" parent="1" edge="1">
          <mxGeometry width="50" height="50" relative="1" as="geometry">
            <mxPoint y="440" as="sourcePoint"/>
            <mxPoint x="80" y="440" as="targetPoint"/>
          </mxGeometry>
        </mxCell>
        <mxCell id="18ak5usq0MqdyDjZxHy--29" value="y2" style="text;html=1;resizable=0;points=[];autosize=1;align=left;verticalAlign=top;spacingTop=-4;" parent="1" vertex="1">
          <mxGeometry x="30" y="440" width="30" height="20" as="geometry"/>
        </mxCell>
        <mxCell id="18ak5usq0MqdyDjZxHy--30" value="" style="endArrow=none;html=1;" parent="1" edge="1">
          <mxGeometry width="50" height="50" relative="1" as="geometry">
            <mxPoint y="460" as="sourcePoint"/>
            <mxPoint x="80" y="460" as="targetPoint"/>
          </mxGeometry>
        </mxCell>
        <mxCell id="18ak5usq0MqdyDjZxHy--31" value="y3" style="text;html=1;resizable=0;points=[];autosize=1;align=left;verticalAlign=top;spacingTop=-4;" parent="1" vertex="1">
          <mxGeometry x="30" y="460" width="30" height="20" as="geometry"/>
        </mxCell>
        <mxCell id="18ak5usq0MqdyDjZxHy--32" value="" style="endArrow=none;html=1;" parent="1" edge="1">
          <mxGeometry width="50" height="50" relative="1" as="geometry">
            <mxPoint y="480" as="sourcePoint"/>
            <mxPoint x="80" y="480" as="targetPoint"/>
          </mxGeometry>
        </mxCell>
        <mxCell id="18ak5usq0MqdyDjZxHy--33" value="t1" style="text;html=1;resizable=0;points=[];autosize=1;align=left;verticalAlign=top;spacingTop=-4;" parent="1" vertex="1">
          <mxGeometry x="30" y="480" width="30" height="20" as="geometry"/>
        </mxCell>
        <mxCell id="18ak5usq0MqdyDjZxHy--34" value="" style="endArrow=none;html=1;" parent="1" edge="1">
          <mxGeometry width="50" height="50" relative="1" as="geometry">
            <mxPoint y="500" as="sourcePoint"/>
            <mxPoint x="80" y="500" as="targetPoint"/>
          </mxGeometry>
        </mxCell>
        <mxCell id="18ak5usq0MqdyDjZxHy--35" value="t2" style="text;html=1;resizable=0;points=[];autosize=1;align=left;verticalAlign=top;spacingTop=-4;" parent="1" vertex="1">
          <mxGeometry x="30" y="500" width="30" height="20" as="geometry"/>
        </mxCell>
        <mxCell id="18ak5usq0MqdyDjZxHy--36" value="" style="endArrow=none;html=1;" parent="1" edge="1">
          <mxGeometry width="50" height="50" relative="1" as="geometry">
            <mxPoint y="520" as="sourcePoint"/>
            <mxPoint x="80" y="520" as="targetPoint"/>
          </mxGeometry>
        </mxCell>
        <mxCell id="18ak5usq0MqdyDjZxHy--37" value="t3" style="text;html=1;resizable=0;points=[];autosize=1;align=left;verticalAlign=top;spacingTop=-4;" parent="1" vertex="1">
          <mxGeometry x="30" y="520" width="30" height="20" as="geometry"/>
        </mxCell>
        <mxCell id="18ak5usq0MqdyDjZxHy--38" value="" style="endArrow=none;html=1;" parent="1" edge="1">
          <mxGeometry width="50" height="50" relative="1" as="geometry">
            <mxPoint y="540" as="sourcePoint"/>
            <mxPoint x="80" y="540" as="targetPoint"/>
          </mxGeometry>
        </mxCell>
        <mxCell id="18ak5usq0MqdyDjZxHy--39" value="X1" style="text;html=1;resizable=0;points=[];autosize=1;align=left;verticalAlign=top;spacingTop=-4;" parent="1" vertex="1">
          <mxGeometry x="1230" y="399.5" width="30" height="20" as="geometry"/>
        </mxCell>
        <mxCell id="18ak5usq0MqdyDjZxHy--40" value="" style="endArrow=none;html=1;" parent="1" edge="1">
          <mxGeometry width="50" height="50" relative="1" as="geometry">
            <mxPoint x="1200" y="419.5" as="sourcePoint"/>
            <mxPoint x="1280" y="419.5" as="targetPoint"/>
          </mxGeometry>
        </mxCell>
        <mxCell id="18ak5usq0MqdyDjZxHy--41" value="" style="rounded=0;whiteSpace=wrap;html=1;" parent="1" vertex="1">
          <mxGeometry x="160" y="360" width="120" height="160" as="geometry"/>
        </mxCell>
        <mxCell id="18ak5usq0MqdyDjZxHy--42" value="&lt;div&gt;&lt;span style=&quot;line-height: 60%&quot;&gt;T&lt;/span&gt;&lt;/div&gt;" style="rounded=0;whiteSpace=wrap;html=1;align=center;verticalAlign=top;" parent="1" vertex="1">
          <mxGeometry x="200" y="360" width="80" height="160" as="geometry"/>
        </mxCell>
        <mxCell id="18ak5usq0MqdyDjZxHy--43" value="!R" style="rounded=0;whiteSpace=wrap;html=1;" parent="1" vertex="1">
          <mxGeometry x="160" y="360" width="40" height="40" as="geometry"/>
        </mxCell>
        <mxCell id="18ak5usq0MqdyDjZxHy--44" value="!S" style="rounded=0;whiteSpace=wrap;html=1;" parent="1" vertex="1">
          <mxGeometry x="160" y="480" width="40" height="40" as="geometry"/>
        </mxCell>
        <mxCell id="18ak5usq0MqdyDjZxHy--45" value="D&lt;br&gt;&lt;br&gt;C" style="rounded=0;whiteSpace=wrap;html=1;" parent="1" vertex="1">
          <mxGeometry x="160" y="400" width="40" height="80" as="geometry"/>
        </mxCell>
        <mxCell id="18ak5usq0MqdyDjZxHy--46" value="!y0" style="text;html=1;resizable=0;points=[];autosize=1;align=left;verticalAlign=top;spacingTop=-4;" parent="1" vertex="1">
          <mxGeometry x="110" y="360" width="30" height="20" as="geometry"/>
        </mxCell>
        <mxCell id="18ak5usq0MqdyDjZxHy--47" value="" style="endArrow=none;html=1;" parent="1" edge="1">
          <mxGeometry width="50" height="50" relative="1" as="geometry">
            <mxPoint x="80" y="380" as="sourcePoint"/>
            <mxPoint x="160" y="380" as="targetPoint"/>
          </mxGeometry>
        </mxCell>
        <mxCell id="18ak5usq0MqdyDjZxHy--48" value="Q1" style="text;html=1;resizable=0;points=[];autosize=1;align=left;verticalAlign=top;spacingTop=-4;" parent="1" vertex="1">
          <mxGeometry x="110" y="409.5" width="30" height="20" as="geometry"/>
        </mxCell>
        <mxCell id="18ak5usq0MqdyDjZxHy--49" value="" style="endArrow=none;html=1;" parent="1" edge="1">
          <mxGeometry width="50" height="50" relative="1" as="geometry">
            <mxPoint x="80" y="429.5" as="sourcePoint"/>
            <mxPoint x="160" y="429.5" as="targetPoint"/>
          </mxGeometry>
        </mxCell>
        <mxCell id="18ak5usq0MqdyDjZxHy--50" value="C" style="text;html=1;resizable=0;points=[];autosize=1;align=left;verticalAlign=top;spacingTop=-4;" parent="1" vertex="1">
          <mxGeometry x="110" y="430" width="20" height="20" as="geometry"/>
        </mxCell>
        <mxCell id="18ak5usq0MqdyDjZxHy--51" value="" style="endArrow=none;html=1;" parent="1" edge="1">
          <mxGeometry width="50" height="50" relative="1" as="geometry">
            <mxPoint x="80" y="450" as="sourcePoint"/>
            <mxPoint x="160" y="450" as="targetPoint"/>
          </mxGeometry>
        </mxCell>
        <mxCell id="18ak5usq0MqdyDjZxHy--52" value="!S3" style="text;html=1;resizable=0;points=[];autosize=1;align=left;verticalAlign=top;spacingTop=-4;" parent="1" vertex="1">
          <mxGeometry x="110" y="480" width="30" height="20" as="geometry"/>
        </mxCell>
        <mxCell id="18ak5usq0MqdyDjZxHy--53" value="" style="endArrow=none;html=1;" parent="1" edge="1">
          <mxGeometry width="50" height="50" relative="1" as="geometry">
            <mxPoint x="80" y="500" as="sourcePoint"/>
            <mxPoint x="160" y="500" as="targetPoint"/>
          </mxGeometry>
        </mxCell>
        <mxCell id="18ak5usq0MqdyDjZxHy--54" value="Q3" style="text;html=1;resizable=0;points=[];autosize=1;align=left;verticalAlign=top;spacingTop=-4;" parent="1" vertex="1">
          <mxGeometry x="310" y="380" width="30" height="20" as="geometry"/>
        </mxCell>
        <mxCell id="18ak5usq0MqdyDjZxHy--55" value="" style="endArrow=none;html=1;" parent="1" edge="1">
          <mxGeometry width="50" height="50" relative="1" as="geometry">
            <mxPoint x="280" y="400" as="sourcePoint"/>
            <mxPoint x="400" y="400" as="targetPoint"/>
          </mxGeometry>
        </mxCell>
        <mxCell id="18ak5usq0MqdyDjZxHy--56" value="!Q3" style="text;html=1;resizable=0;points=[];autosize=1;align=left;verticalAlign=top;spacingTop=-4;" parent="1" vertex="1">
          <mxGeometry x="310" y="479.5" width="30" height="20" as="geometry"/>
        </mxCell>
        <mxCell id="18ak5usq0MqdyDjZxHy--57" value="" style="endArrow=none;html=1;" parent="1" edge="1">
          <mxGeometry width="50" height="50" relative="1" as="geometry">
            <mxPoint x="280" y="499.5" as="sourcePoint"/>
            <mxPoint x="400" y="500" as="targetPoint"/>
          </mxGeometry>
        </mxCell>
        <mxCell id="18ak5usq0MqdyDjZxHy--58" value="" style="rounded=0;whiteSpace=wrap;html=1;" parent="1" vertex="1">
          <mxGeometry x="480" y="359.5" width="120" height="160" as="geometry"/>
        </mxCell>
        <mxCell id="18ak5usq0MqdyDjZxHy--59" value="&lt;div&gt;&lt;span style=&quot;line-height: 60%&quot;&gt;T&lt;/span&gt;&lt;/div&gt;" style="rounded=0;whiteSpace=wrap;html=1;align=center;verticalAlign=top;" parent="1" vertex="1">
          <mxGeometry x="520" y="359.5" width="80" height="160" as="geometry"/>
        </mxCell>
        <mxCell id="18ak5usq0MqdyDjZxHy--60" value="!R" style="rounded=0;whiteSpace=wrap;html=1;" parent="1" vertex="1">
          <mxGeometry x="480" y="359.5" width="40" height="40" as="geometry"/>
        </mxCell>
        <mxCell id="18ak5usq0MqdyDjZxHy--61" value="!S" style="rounded=0;whiteSpace=wrap;html=1;" parent="1" vertex="1">
          <mxGeometry x="480" y="479.5" width="40" height="40" as="geometry"/>
        </mxCell>
        <mxCell id="18ak5usq0MqdyDjZxHy--62" value="D&lt;br&gt;&lt;br&gt;C" style="rounded=0;whiteSpace=wrap;html=1;" parent="1" vertex="1">
          <mxGeometry x="480" y="399.5" width="40" height="80" as="geometry"/>
        </mxCell>
        <mxCell id="18ak5usq0MqdyDjZxHy--63" value="!y0" style="text;html=1;resizable=0;points=[];autosize=1;align=left;verticalAlign=top;spacingTop=-4;" parent="1" vertex="1">
          <mxGeometry x="430" y="359.5" width="30" height="20" as="geometry"/>
        </mxCell>
        <mxCell id="18ak5usq0MqdyDjZxHy--64" value="Q3" style="text;html=1;resizable=0;points=[];autosize=1;align=left;verticalAlign=top;spacingTop=-4;" parent="1" vertex="1">
          <mxGeometry x="430" y="409" width="30" height="20" as="geometry"/>
        </mxCell>
        <mxCell id="18ak5usq0MqdyDjZxHy--65" value="C" style="text;html=1;resizable=0;points=[];autosize=1;align=left;verticalAlign=top;spacingTop=-4;" parent="1" vertex="1">
          <mxGeometry x="430" y="429.5" width="20" height="20" as="geometry"/>
        </mxCell>
        <mxCell id="18ak5usq0MqdyDjZxHy--66" value="!S2" style="text;html=1;resizable=0;points=[];autosize=1;align=left;verticalAlign=top;spacingTop=-4;" parent="1" vertex="1">
          <mxGeometry x="430" y="479.5" width="30" height="20" as="geometry"/>
        </mxCell>
        <mxCell id="18ak5usq0MqdyDjZxHy--67" value="Q2" style="text;html=1;resizable=0;points=[];autosize=1;align=left;verticalAlign=top;spacingTop=-4;" parent="1" vertex="1">
          <mxGeometry x="630" y="379.5" width="30" height="20" as="geometry"/>
        </mxCell>
        <mxCell id="18ak5usq0MqdyDjZxHy--68" value="!Q2" style="text;html=1;resizable=0;points=[];autosize=1;align=left;verticalAlign=top;spacingTop=-4;" parent="1" vertex="1">
          <mxGeometry x="630" y="479" width="30" height="20" as="geometry"/>
        </mxCell>
        <mxCell id="18ak5usq0MqdyDjZxHy--69" value="" style="endArrow=none;html=1;" parent="1" edge="1">
          <mxGeometry width="50" height="50" relative="1" as="geometry">
            <mxPoint x="600" y="499" as="sourcePoint"/>
            <mxPoint x="720" y="499.5" as="targetPoint"/>
          </mxGeometry>
        </mxCell>
        <mxCell id="18ak5usq0MqdyDjZxHy--70" value="" style="endArrow=none;html=1;" parent="1" edge="1">
          <mxGeometry width="50" height="50" relative="1" as="geometry">
            <mxPoint x="600" y="399.5" as="sourcePoint"/>
            <mxPoint x="720" y="399.5" as="targetPoint"/>
          </mxGeometry>
        </mxCell>
        <mxCell id="18ak5usq0MqdyDjZxHy--71" value="" style="endArrow=none;html=1;" parent="1" edge="1">
          <mxGeometry width="50" height="50" relative="1" as="geometry">
            <mxPoint x="400" y="499.5" as="sourcePoint"/>
            <mxPoint x="480" y="499.5" as="targetPoint"/>
          </mxGeometry>
        </mxCell>
        <mxCell id="18ak5usq0MqdyDjZxHy--72" value="" style="endArrow=none;html=1;" parent="1" edge="1">
          <mxGeometry width="50" height="50" relative="1" as="geometry">
            <mxPoint x="400" y="449.5" as="sourcePoint"/>
            <mxPoint x="480" y="449.5" as="targetPoint"/>
          </mxGeometry>
        </mxCell>
        <mxCell id="18ak5usq0MqdyDjZxHy--73" value="" style="endArrow=none;html=1;" parent="1" edge="1">
          <mxGeometry width="50" height="50" relative="1" as="geometry">
            <mxPoint x="400" y="429" as="sourcePoint"/>
            <mxPoint x="480" y="429" as="targetPoint"/>
          </mxGeometry>
        </mxCell>
        <mxCell id="18ak5usq0MqdyDjZxHy--74" value="" style="endArrow=none;html=1;" parent="1" edge="1">
          <mxGeometry width="50" height="50" relative="1" as="geometry">
            <mxPoint x="400" y="379.5" as="sourcePoint"/>
            <mxPoint x="480" y="379.5" as="targetPoint"/>
          </mxGeometry>
        </mxCell>
        <mxCell id="18ak5usq0MqdyDjZxHy--75" value="" style="rounded=0;whiteSpace=wrap;html=1;" parent="1" vertex="1">
          <mxGeometry x="800" y="360" width="120" height="160" as="geometry"/>
        </mxCell>
        <mxCell id="18ak5usq0MqdyDjZxHy--76" value="&lt;div&gt;&lt;span style=&quot;line-height: 60%&quot;&gt;T&lt;/span&gt;&lt;/div&gt;" style="rounded=0;whiteSpace=wrap;html=1;align=center;verticalAlign=top;" parent="1" vertex="1">
          <mxGeometry x="840" y="360" width="80" height="160" as="geometry"/>
        </mxCell>
        <mxCell id="18ak5usq0MqdyDjZxHy--77" value="!R" style="rounded=0;whiteSpace=wrap;html=1;" parent="1" vertex="1">
          <mxGeometry x="800" y="360" width="40" height="40" as="geometry"/>
        </mxCell>
        <mxCell id="18ak5usq0MqdyDjZxHy--78" value="!S" style="rounded=0;whiteSpace=wrap;html=1;" parent="1" vertex="1">
          <mxGeometry x="800" y="480" width="40" height="40" as="geometry"/>
        </mxCell>
        <mxCell id="18ak5usq0MqdyDjZxHy--79" value="D&lt;br&gt;&lt;br&gt;C" style="rounded=0;whiteSpace=wrap;html=1;" parent="1" vertex="1">
          <mxGeometry x="800" y="400" width="40" height="80" as="geometry"/>
        </mxCell>
        <mxCell id="18ak5usq0MqdyDjZxHy--80" value="!y0" style="text;html=1;resizable=0;points=[];autosize=1;align=left;verticalAlign=top;spacingTop=-4;" parent="1" vertex="1">
          <mxGeometry x="750" y="360" width="30" height="20" as="geometry"/>
        </mxCell>
        <mxCell id="18ak5usq0MqdyDjZxHy--81" value="Q2" style="text;html=1;resizable=0;points=[];autosize=1;align=left;verticalAlign=top;spacingTop=-4;" parent="1" vertex="1">
          <mxGeometry x="750" y="409.5" width="30" height="20" as="geometry"/>
        </mxCell>
        <mxCell id="18ak5usq0MqdyDjZxHy--82" value="C" style="text;html=1;resizable=0;points=[];autosize=1;align=left;verticalAlign=top;spacingTop=-4;" parent="1" vertex="1">
          <mxGeometry x="750" y="430" width="20" height="20" as="geometry"/>
        </mxCell>
        <mxCell id="18ak5usq0MqdyDjZxHy--83" value="!S1" style="text;html=1;resizable=0;points=[];autosize=1;align=left;verticalAlign=top;spacingTop=-4;" parent="1" vertex="1">
          <mxGeometry x="750" y="480" width="30" height="20" as="geometry"/>
        </mxCell>
        <mxCell id="18ak5usq0MqdyDjZxHy--84" value="Q1" style="text;html=1;resizable=0;points=[];autosize=1;align=left;verticalAlign=top;spacingTop=-4;" parent="1" vertex="1">
          <mxGeometry x="950" y="380" width="30" height="20" as="geometry"/>
        </mxCell>
        <mxCell id="18ak5usq0MqdyDjZxHy--85" value="!Q1" style="text;html=1;resizable=0;points=[];autosize=1;align=left;verticalAlign=top;spacingTop=-4;" parent="1" vertex="1">
          <mxGeometry x="950" y="479.5" width="30" height="20" as="geometry"/>
        </mxCell>
        <mxCell id="18ak5usq0MqdyDjZxHy--86" value="" style="endArrow=none;html=1;" parent="1" edge="1">
          <mxGeometry width="50" height="50" relative="1" as="geometry">
            <mxPoint x="920" y="499.5" as="sourcePoint"/>
            <mxPoint x="1040" y="500" as="targetPoint"/>
          </mxGeometry>
        </mxCell>
        <mxCell id="18ak5usq0MqdyDjZxHy--87" value="" style="endArrow=none;html=1;" parent="1" edge="1">
          <mxGeometry width="50" height="50" relative="1" as="geometry">
            <mxPoint x="920" y="400" as="sourcePoint"/>
            <mxPoint x="1040" y="400" as="targetPoint"/>
          </mxGeometry>
        </mxCell>
        <mxCell id="18ak5usq0MqdyDjZxHy--88" value="" style="endArrow=none;html=1;" parent="1" edge="1">
          <mxGeometry width="50" height="50" relative="1" as="geometry">
            <mxPoint x="720" y="500" as="sourcePoint"/>
            <mxPoint x="800" y="500" as="targetPoint"/>
          </mxGeometry>
        </mxCell>
        <mxCell id="18ak5usq0MqdyDjZxHy--89" value="" style="endArrow=none;html=1;" parent="1" edge="1">
          <mxGeometry width="50" height="50" relative="1" as="geometry">
            <mxPoint x="720" y="450" as="sourcePoint"/>
            <mxPoint x="800" y="450" as="targetPoint"/>
          </mxGeometry>
        </mxCell>
        <mxCell id="18ak5usq0MqdyDjZxHy--90" value="" style="endArrow=none;html=1;" parent="1" edge="1">
          <mxGeometry width="50" height="50" relative="1" as="geometry">
            <mxPoint x="720" y="429.5" as="sourcePoint"/>
            <mxPoint x="800" y="429.5" as="targetPoint"/>
          </mxGeometry>
        </mxCell>
        <mxCell id="18ak5usq0MqdyDjZxHy--91" value="" style="endArrow=none;html=1;" parent="1" edge="1">
          <mxGeometry width="50" height="50" relative="1" as="geometry">
            <mxPoint x="720" y="380" as="sourcePoint"/>
            <mxPoint x="800" y="380" as="targetPoint"/>
          </mxGeometry>
        </mxCell>
        <mxCell id="tPRsiFmyDKU2fb7vzfHu-1" value="" style="endArrow=none;html=1;" parent="1" edge="1">
          <mxGeometry width="50" height="50" relative="1" as="geometry">
            <mxPoint x="80" y="640" as="sourcePoint"/>
            <mxPoint x="120" y="640" as="targetPoint"/>
          </mxGeometry>
        </mxCell>
        <mxCell id="tPRsiFmyDKU2fb7vzfHu-2" value="" style="endArrow=none;html=1;" parent="1" edge="1">
          <mxGeometry width="50" height="50" relative="1" as="geometry">
            <mxPoint x="80" y="680" as="sourcePoint"/>
            <mxPoint x="120" y="680" as="targetPoint"/>
          </mxGeometry>
        </mxCell>
        <mxCell id="tPRsiFmyDKU2fb7vzfHu-3" value="y0" style="text;html=1;resizable=0;points=[];autosize=1;align=left;verticalAlign=top;spacingTop=-4;" parent="1" vertex="1">
          <mxGeometry x="80" y="620" width="30" height="20" as="geometry"/>
        </mxCell>
        <mxCell id="tPRsiFmyDKU2fb7vzfHu-4" value="y0" style="text;html=1;resizable=0;points=[];autosize=1;align=left;verticalAlign=top;spacingTop=-4;" parent="1" vertex="1">
          <mxGeometry x="80" y="661" width="30" height="20" as="geometry"/>
        </mxCell>
        <mxCell id="tPRsiFmyDKU2fb7vzfHu-5" value="&lt;font style=&quot;font-size: 26px&quot;&gt;&amp;amp;&lt;/font&gt;" style="rounded=0;whiteSpace=wrap;html=1;" parent="1" vertex="1">
          <mxGeometry x="120" y="600" width="80" height="120" as="geometry"/>
        </mxCell>
        <mxCell id="tPRsiFmyDKU2fb7vzfHu-6" value="!y0" style="text;html=1;resizable=0;points=[];autosize=1;align=left;verticalAlign=top;spacingTop=-4;" parent="1" vertex="1">
          <mxGeometry x="200" y="640" width="30" height="20" as="geometry"/>
        </mxCell>
        <mxCell id="tPRsiFmyDKU2fb7vzfHu-7" value="" style="endArrow=none;html=1;" parent="1" edge="1">
          <mxGeometry width="50" height="50" relative="1" as="geometry">
            <mxPoint x="199.99999999999997" y="659" as="sourcePoint"/>
            <mxPoint x="240" y="659" as="targetPoint"/>
          </mxGeometry>
        </mxCell>
        <mxCell id="tPRsiFmyDKU2fb7vzfHu-9" value="" style="shape=mxgraph.bpmn.shape;html=1;verticalLabelPosition=bottom;labelBackgroundColor=#ffffff;verticalAlign=top;align=center;perimeter=ellipsePerimeter;outlineConnect=0;outline=end;symbol=general;" parent="1" vertex="1">
          <mxGeometry x="155" y="374.5" width="10" height="10" as="geometry"/>
        </mxCell>
        <mxCell id="tPRsiFmyDKU2fb7vzfHu-10" value="" style="shape=mxgraph.bpmn.shape;html=1;verticalLabelPosition=bottom;labelBackgroundColor=#ffffff;verticalAlign=top;align=center;perimeter=ellipsePerimeter;outlineConnect=0;outline=end;symbol=general;" parent="1" vertex="1">
          <mxGeometry x="155" y="494.5" width="10" height="10" as="geometry"/>
        </mxCell>
        <mxCell id="tPRsiFmyDKU2fb7vzfHu-11" value="" style="shape=mxgraph.bpmn.shape;html=1;verticalLabelPosition=bottom;labelBackgroundColor=#ffffff;verticalAlign=top;align=center;perimeter=ellipsePerimeter;outlineConnect=0;outline=end;symbol=general;" parent="1" vertex="1">
          <mxGeometry x="275" y="495" width="10" height="10" as="geometry"/>
        </mxCell>
        <mxCell id="tPRsiFmyDKU2fb7vzfHu-12" value="" style="shape=mxgraph.bpmn.shape;html=1;verticalLabelPosition=bottom;labelBackgroundColor=#ffffff;verticalAlign=top;align=center;perimeter=ellipsePerimeter;outlineConnect=0;outline=end;symbol=general;" parent="1" vertex="1">
          <mxGeometry x="475" y="374" width="10" height="10" as="geometry"/>
        </mxCell>
        <mxCell id="tPRsiFmyDKU2fb7vzfHu-13" value="" style="shape=mxgraph.bpmn.shape;html=1;verticalLabelPosition=bottom;labelBackgroundColor=#ffffff;verticalAlign=top;align=center;perimeter=ellipsePerimeter;outlineConnect=0;outline=end;symbol=general;" parent="1" vertex="1">
          <mxGeometry x="475" y="494" width="10" height="10" as="geometry"/>
        </mxCell>
        <mxCell id="tPRsiFmyDKU2fb7vzfHu-14" value="" style="shape=mxgraph.bpmn.shape;html=1;verticalLabelPosition=bottom;labelBackgroundColor=#ffffff;verticalAlign=top;align=center;perimeter=ellipsePerimeter;outlineConnect=0;outline=end;symbol=general;" parent="1" vertex="1">
          <mxGeometry x="595" y="494.5" width="10" height="10" as="geometry"/>
        </mxCell>
        <mxCell id="tPRsiFmyDKU2fb7vzfHu-15" value="" style="shape=mxgraph.bpmn.shape;html=1;verticalLabelPosition=bottom;labelBackgroundColor=#ffffff;verticalAlign=top;align=center;perimeter=ellipsePerimeter;outlineConnect=0;outline=end;symbol=general;" parent="1" vertex="1">
          <mxGeometry x="795" y="373.5" width="10" height="10" as="geometry"/>
        </mxCell>
        <mxCell id="tPRsiFmyDKU2fb7vzfHu-16" value="" style="shape=mxgraph.bpmn.shape;html=1;verticalLabelPosition=bottom;labelBackgroundColor=#ffffff;verticalAlign=top;align=center;perimeter=ellipsePerimeter;outlineConnect=0;outline=end;symbol=general;" parent="1" vertex="1">
          <mxGeometry x="795" y="493.5" width="10" height="10" as="geometry"/>
        </mxCell>
        <mxCell id="tPRsiFmyDKU2fb7vzfHu-17" value="" style="shape=mxgraph.bpmn.shape;html=1;verticalLabelPosition=bottom;labelBackgroundColor=#ffffff;verticalAlign=top;align=center;perimeter=ellipsePerimeter;outlineConnect=0;outline=end;symbol=general;" parent="1" vertex="1">
          <mxGeometry x="915" y="494" width="10" height="10" as="geometry"/>
        </mxCell>
        <mxCell id="tPRsiFmyDKU2fb7vzfHu-18" value="" style="shape=mxgraph.bpmn.shape;html=1;verticalLabelPosition=bottom;labelBackgroundColor=#ffffff;verticalAlign=top;align=center;perimeter=ellipsePerimeter;outlineConnect=0;outline=end;symbol=general;" parent="1" vertex="1">
          <mxGeometry x="195" y="655" width="10" height="10" as="geometry"/>
        </mxCell>
        <mxCell id="tPRsiFmyDKU2fb7vzfHu-19" value="&lt;font style=&quot;font-size: 26px&quot;&gt;&amp;amp;&lt;/font&gt;" style="rounded=0;whiteSpace=wrap;html=1;" parent="1" vertex="1">
          <mxGeometry x="280" y="601" width="80" height="120" as="geometry"/>
        </mxCell>
        <mxCell id="tPRsiFmyDKU2fb7vzfHu-20" value="!S3" style="text;html=1;resizable=0;points=[];autosize=1;align=left;verticalAlign=top;spacingTop=-4;" parent="1" vertex="1">
          <mxGeometry x="360" y="641" width="30" height="20" as="geometry"/>
        </mxCell>
        <mxCell id="tPRsiFmyDKU2fb7vzfHu-21" value="" style="shape=mxgraph.bpmn.shape;html=1;verticalLabelPosition=bottom;labelBackgroundColor=#ffffff;verticalAlign=top;align=center;perimeter=ellipsePerimeter;outlineConnect=0;outline=end;symbol=general;" parent="1" vertex="1">
          <mxGeometry x="355" y="656" width="10" height="10" as="geometry"/>
        </mxCell>
        <mxCell id="tPRsiFmyDKU2fb7vzfHu-22" value="y2" style="text;html=1;resizable=0;points=[];autosize=1;align=left;verticalAlign=top;spacingTop=-4;" parent="1" vertex="1">
          <mxGeometry x="240" y="621" width="30" height="20" as="geometry"/>
        </mxCell>
        <mxCell id="tPRsiFmyDKU2fb7vzfHu-23" value="" style="endArrow=none;html=1;" parent="1" edge="1">
          <mxGeometry width="50" height="50" relative="1" as="geometry">
            <mxPoint x="240" y="641" as="sourcePoint"/>
            <mxPoint x="280" y="641" as="targetPoint"/>
          </mxGeometry>
        </mxCell>
        <mxCell id="tPRsiFmyDKU2fb7vzfHu-24" value="t3" style="text;html=1;resizable=0;points=[];autosize=1;align=left;verticalAlign=top;spacingTop=-4;" parent="1" vertex="1">
          <mxGeometry x="240" y="662" width="30" height="20" as="geometry"/>
        </mxCell>
        <mxCell id="tPRsiFmyDKU2fb7vzfHu-25" value="" style="endArrow=none;html=1;" parent="1" edge="1">
          <mxGeometry width="50" height="50" relative="1" as="geometry">
            <mxPoint x="240" y="681" as="sourcePoint"/>
            <mxPoint x="280" y="681" as="targetPoint"/>
          </mxGeometry>
        </mxCell>
        <mxCell id="tPRsiFmyDKU2fb7vzfHu-26" value="" style="endArrow=none;html=1;" parent="1" edge="1">
          <mxGeometry width="50" height="50" relative="1" as="geometry">
            <mxPoint x="360" y="660" as="sourcePoint"/>
            <mxPoint x="400" y="660" as="targetPoint"/>
          </mxGeometry>
        </mxCell>
        <mxCell id="tPRsiFmyDKU2fb7vzfHu-27" value="&lt;font style=&quot;font-size: 26px&quot;&gt;&amp;amp;&lt;/font&gt;" style="rounded=0;whiteSpace=wrap;html=1;" parent="1" vertex="1">
          <mxGeometry x="440" y="600" width="80" height="120" as="geometry"/>
        </mxCell>
        <mxCell id="tPRsiFmyDKU2fb7vzfHu-30" value="y2" style="text;html=1;resizable=0;points=[];autosize=1;align=left;verticalAlign=top;spacingTop=-4;" parent="1" vertex="1">
          <mxGeometry x="400" y="620" width="30" height="20" as="geometry"/>
        </mxCell>
        <mxCell id="tPRsiFmyDKU2fb7vzfHu-31" value="" style="endArrow=none;html=1;" parent="1" edge="1">
          <mxGeometry width="50" height="50" relative="1" as="geometry">
            <mxPoint x="400" y="640" as="sourcePoint"/>
            <mxPoint x="440" y="640" as="targetPoint"/>
          </mxGeometry>
        </mxCell>
        <mxCell id="tPRsiFmyDKU2fb7vzfHu-32" value="t2" style="text;html=1;resizable=0;points=[];autosize=1;align=left;verticalAlign=top;spacingTop=-4;" parent="1" vertex="1">
          <mxGeometry x="400" y="661" width="30" height="20" as="geometry"/>
        </mxCell>
        <mxCell id="tPRsiFmyDKU2fb7vzfHu-33" value="" style="endArrow=none;html=1;" parent="1" edge="1">
          <mxGeometry width="50" height="50" relative="1" as="geometry">
            <mxPoint x="400" y="680" as="sourcePoint"/>
            <mxPoint x="440" y="680" as="targetPoint"/>
          </mxGeometry>
        </mxCell>
        <mxCell id="tPRsiFmyDKU2fb7vzfHu-34" value="" style="endArrow=none;html=1;" parent="1" edge="1">
          <mxGeometry width="50" height="50" relative="1" as="geometry">
            <mxPoint x="520" y="659" as="sourcePoint"/>
            <mxPoint x="560" y="659" as="targetPoint"/>
          </mxGeometry>
        </mxCell>
        <mxCell id="tPRsiFmyDKU2fb7vzfHu-35" value="&lt;font style=&quot;font-size: 26px&quot;&gt;1&lt;/font&gt;" style="rounded=0;whiteSpace=wrap;html=1;" parent="1" vertex="1">
          <mxGeometry x="560" y="600" width="80" height="120" as="geometry"/>
        </mxCell>
        <mxCell id="tPRsiFmyDKU2fb7vzfHu-36" value="" style="endArrow=none;html=1;" parent="1" edge="1">
          <mxGeometry width="50" height="50" relative="1" as="geometry">
            <mxPoint x="400" y="740" as="sourcePoint"/>
            <mxPoint x="540" y="740" as="targetPoint"/>
          </mxGeometry>
        </mxCell>
        <mxCell id="tPRsiFmyDKU2fb7vzfHu-37" value="" style="endArrow=none;html=1;" parent="1" edge="1">
          <mxGeometry width="50" height="50" relative="1" as="geometry">
            <mxPoint x="540" y="740" as="sourcePoint"/>
            <mxPoint x="540" y="690" as="targetPoint"/>
          </mxGeometry>
        </mxCell>
        <mxCell id="tPRsiFmyDKU2fb7vzfHu-38" value="" style="endArrow=none;html=1;" parent="1" edge="1">
          <mxGeometry width="50" height="50" relative="1" as="geometry">
            <mxPoint x="540" y="690" as="sourcePoint"/>
            <mxPoint x="560" y="690" as="targetPoint"/>
          </mxGeometry>
        </mxCell>
        <mxCell id="tPRsiFmyDKU2fb7vzfHu-39" value="y1" style="text;html=1;resizable=0;points=[];autosize=1;align=left;verticalAlign=top;spacingTop=-4;" parent="1" vertex="1">
          <mxGeometry x="400" y="720" width="30" height="20" as="geometry"/>
        </mxCell>
        <mxCell id="tPRsiFmyDKU2fb7vzfHu-40" value="" style="shape=mxgraph.bpmn.shape;html=1;verticalLabelPosition=bottom;labelBackgroundColor=#ffffff;verticalAlign=top;align=center;perimeter=ellipsePerimeter;outlineConnect=0;outline=end;symbol=general;" parent="1" vertex="1">
          <mxGeometry x="635" y="650" width="10" height="10" as="geometry"/>
        </mxCell>
        <mxCell id="tPRsiFmyDKU2fb7vzfHu-41" value="" style="endArrow=none;html=1;" parent="1" edge="1">
          <mxGeometry width="50" height="50" relative="1" as="geometry">
            <mxPoint x="640" y="654" as="sourcePoint"/>
            <mxPoint x="720" y="654" as="targetPoint"/>
          </mxGeometry>
        </mxCell>
        <mxCell id="tPRsiFmyDKU2fb7vzfHu-42" value="!S2" style="text;html=1;resizable=0;points=[];autosize=1;align=left;verticalAlign=top;spacingTop=-4;" parent="1" vertex="1">
          <mxGeometry x="680" y="633" width="30" height="20" as="geometry"/>
        </mxCell>
        <mxCell id="tPRsiFmyDKU2fb7vzfHu-43" value="&lt;font style=&quot;font-size: 26px&quot;&gt;&amp;amp;&lt;/font&gt;" style="rounded=0;whiteSpace=wrap;html=1;" parent="1" vertex="1">
          <mxGeometry x="760" y="600" width="80" height="120" as="geometry"/>
        </mxCell>
        <mxCell id="tPRsiFmyDKU2fb7vzfHu-44" value="C" style="text;html=1;resizable=0;points=[];autosize=1;align=left;verticalAlign=top;spacingTop=-4;" parent="1" vertex="1">
          <mxGeometry x="840" y="640" width="20" height="20" as="geometry"/>
        </mxCell>
        <mxCell id="tPRsiFmyDKU2fb7vzfHu-46" value="y3" style="text;html=1;resizable=0;points=[];autosize=1;align=left;verticalAlign=top;spacingTop=-4;" parent="1" vertex="1">
          <mxGeometry x="720" y="620" width="30" height="20" as="geometry"/>
        </mxCell>
        <mxCell id="tPRsiFmyDKU2fb7vzfHu-47" value="" style="endArrow=none;html=1;" parent="1" edge="1">
          <mxGeometry width="50" height="50" relative="1" as="geometry">
            <mxPoint x="720" y="640" as="sourcePoint"/>
            <mxPoint x="760" y="640" as="targetPoint"/>
          </mxGeometry>
        </mxCell>
        <mxCell id="tPRsiFmyDKU2fb7vzfHu-48" value="c" style="text;html=1;resizable=0;points=[];autosize=1;align=left;verticalAlign=top;spacingTop=-4;" parent="1" vertex="1">
          <mxGeometry x="720" y="661" width="20" height="20" as="geometry"/>
        </mxCell>
        <mxCell id="tPRsiFmyDKU2fb7vzfHu-49" value="" style="endArrow=none;html=1;" parent="1" edge="1">
          <mxGeometry width="50" height="50" relative="1" as="geometry">
            <mxPoint x="720" y="680" as="sourcePoint"/>
            <mxPoint x="760" y="680" as="targetPoint"/>
          </mxGeometry>
        </mxCell>
        <mxCell id="tPRsiFmyDKU2fb7vzfHu-50" value="" style="endArrow=none;html=1;" parent="1" edge="1">
          <mxGeometry width="50" height="50" relative="1" as="geometry">
            <mxPoint x="840" y="659" as="sourcePoint"/>
            <mxPoint x="880" y="659" as="targetPoint"/>
          </mxGeometry>
        </mxCell>
        <mxCell id="tPRsiFmyDKU2fb7vzfHu-51" value="&lt;font style=&quot;font-size: 26px&quot;&gt;&amp;amp;&lt;/font&gt;" style="rounded=0;whiteSpace=wrap;html=1;" parent="1" vertex="1">
          <mxGeometry x="920" y="600" width="80" height="120" as="geometry"/>
        </mxCell>
        <mxCell id="tPRsiFmyDKU2fb7vzfHu-52" value="!S1" style="text;html=1;resizable=0;points=[];autosize=1;align=left;verticalAlign=top;spacingTop=-4;" parent="1" vertex="1">
          <mxGeometry x="1000" y="640" width="30" height="20" as="geometry"/>
        </mxCell>
        <mxCell id="tPRsiFmyDKU2fb7vzfHu-53" value="" style="shape=mxgraph.bpmn.shape;html=1;verticalLabelPosition=bottom;labelBackgroundColor=#ffffff;verticalAlign=top;align=center;perimeter=ellipsePerimeter;outlineConnect=0;outline=end;symbol=general;" parent="1" vertex="1">
          <mxGeometry x="995" y="655" width="10" height="10" as="geometry"/>
        </mxCell>
        <mxCell id="tPRsiFmyDKU2fb7vzfHu-54" value="y2" style="text;html=1;resizable=0;points=[];autosize=1;align=left;verticalAlign=top;spacingTop=-4;" parent="1" vertex="1">
          <mxGeometry x="880" y="620" width="30" height="20" as="geometry"/>
        </mxCell>
        <mxCell id="tPRsiFmyDKU2fb7vzfHu-55" value="" style="endArrow=none;html=1;" parent="1" edge="1">
          <mxGeometry width="50" height="50" relative="1" as="geometry">
            <mxPoint x="880" y="640" as="sourcePoint"/>
            <mxPoint x="920" y="640" as="targetPoint"/>
          </mxGeometry>
        </mxCell>
        <mxCell id="tPRsiFmyDKU2fb7vzfHu-56" value="t1" style="text;html=1;resizable=0;points=[];autosize=1;align=left;verticalAlign=top;spacingTop=-4;" parent="1" vertex="1">
          <mxGeometry x="880" y="661" width="30" height="20" as="geometry"/>
        </mxCell>
        <mxCell id="tPRsiFmyDKU2fb7vzfHu-57" value="" style="endArrow=none;html=1;" parent="1" edge="1">
          <mxGeometry width="50" height="50" relative="1" as="geometry">
            <mxPoint x="880" y="680" as="sourcePoint"/>
            <mxPoint x="920" y="680" as="targetPoint"/>
          </mxGeometry>
        </mxCell>
        <mxCell id="tPRsiFmyDKU2fb7vzfHu-58" value="" style="endArrow=none;html=1;" parent="1" edge="1">
          <mxGeometry width="50" height="50" relative="1" as="geometry">
            <mxPoint x="1000" y="659" as="sourcePoint"/>
            <mxPoint x="1040" y="659" as="targetPoint"/>
          </mxGeometry>
        </mxCell>
        <mxCell id="tPRsiFmyDKU2fb7vzfHu-66" value="" style="endArrow=none;html=1;" parent="1" edge="1">
          <mxGeometry width="50" height="50" relative="1" as="geometry">
            <mxPoint x="1040" y="440" as="sourcePoint"/>
            <mxPoint x="1080" y="440" as="targetPoint"/>
          </mxGeometry>
        </mxCell>
        <mxCell id="tPRsiFmyDKU2fb7vzfHu-67" value="" style="endArrow=none;html=1;" parent="1" edge="1">
          <mxGeometry width="50" height="50" relative="1" as="geometry">
            <mxPoint x="1040" y="480" as="sourcePoint"/>
            <mxPoint x="1080" y="480" as="targetPoint"/>
          </mxGeometry>
        </mxCell>
        <mxCell id="tPRsiFmyDKU2fb7vzfHu-68" value="" style="endArrow=none;html=1;" parent="1" edge="1">
          <mxGeometry width="50" height="50" relative="1" as="geometry">
            <mxPoint x="1040" y="520" as="sourcePoint"/>
            <mxPoint x="1080" y="520" as="targetPoint"/>
          </mxGeometry>
        </mxCell>
        <mxCell id="tPRsiFmyDKU2fb7vzfHu-69" value="Q3" style="text;html=1;resizable=0;points=[];autosize=1;align=left;verticalAlign=top;spacingTop=-4;" parent="1" vertex="1">
          <mxGeometry x="1040" y="420" width="30" height="20" as="geometry"/>
        </mxCell>
        <mxCell id="tPRsiFmyDKU2fb7vzfHu-70" value="!Q2" style="text;html=1;resizable=0;points=[];autosize=1;align=left;verticalAlign=top;spacingTop=-4;" parent="1" vertex="1">
          <mxGeometry x="1040" y="460" width="30" height="20" as="geometry"/>
        </mxCell>
        <mxCell id="tPRsiFmyDKU2fb7vzfHu-71" value="Q1" style="text;html=1;resizable=0;points=[];autosize=1;align=left;verticalAlign=top;spacingTop=-4;" parent="1" vertex="1">
          <mxGeometry x="1040" y="500" width="30" height="20" as="geometry"/>
        </mxCell>
        <mxCell id="tPRsiFmyDKU2fb7vzfHu-72" value="&lt;font style=&quot;font-size: 26px&quot;&gt;&amp;amp;&lt;/font&gt;" style="rounded=0;whiteSpace=wrap;html=1;" parent="1" vertex="1">
          <mxGeometry x="1080" y="419" width="80" height="120" as="geometry"/>
        </mxCell>
        <mxCell id="tPRsiFmyDKU2fb7vzfHu-73" value="" style="endArrow=none;html=1;" parent="1" edge="1">
          <mxGeometry width="50" height="50" relative="1" as="geometry">
            <mxPoint x="1160" y="480" as="sourcePoint"/>
            <mxPoint x="1200" y="480" as="targetPoint"/>
          </mxGeometry>
        </mxCell>
        <mxCell id="tPRsiFmyDKU2fb7vzfHu-74" value="X1" style="text;html=1;resizable=0;points=[];autosize=1;align=left;verticalAlign=top;spacingTop=-4;" parent="1" vertex="1">
          <mxGeometry x="1160" y="459" width="30" height="20" as="geometry"/>
        </mxCell>
        <mxCell id="tPRsiFmyDKU2fb7vzfHu-75" value="" style="endArrow=none;html=1;" parent="1" edge="1">
          <mxGeometry width="50" height="50" relative="1" as="geometry">
            <mxPoint x="120" y="1760" as="sourcePoint"/>
            <mxPoint x="120" y="880" as="targetPoint"/>
          </mxGeometry>
        </mxCell>
        <mxCell id="tPRsiFmyDKU2fb7vzfHu-76" value="" style="endArrow=none;html=1;" parent="1" edge="1">
          <mxGeometry width="50" height="50" relative="1" as="geometry">
            <mxPoint x="120" y="1759.5" as="sourcePoint"/>
            <mxPoint x="480" y="1759.5" as="targetPoint"/>
          </mxGeometry>
        </mxCell>
        <mxCell id="tPRsiFmyDKU2fb7vzfHu-77" value="" style="endArrow=none;html=1;" parent="1" edge="1">
          <mxGeometry width="50" height="50" relative="1" as="geometry">
            <mxPoint x="480" y="1760" as="sourcePoint"/>
            <mxPoint x="480" y="880" as="targetPoint"/>
          </mxGeometry>
        </mxCell>
        <mxCell id="tPRsiFmyDKU2fb7vzfHu-78" value="LOGIC" style="text;html=1;resizable=0;points=[];autosize=1;align=left;verticalAlign=top;spacingTop=-4;" parent="1" vertex="1">
          <mxGeometry x="256" y="855" width="50" height="20" as="geometry"/>
        </mxCell>
        <mxCell id="tPRsiFmyDKU2fb7vzfHu-83" value="" style="endArrow=none;html=1;" parent="1" edge="1">
          <mxGeometry width="50" height="50" relative="1" as="geometry">
            <mxPoint x="560" y="1760" as="sourcePoint"/>
            <mxPoint x="559.5" y="880" as="targetPoint"/>
          </mxGeometry>
        </mxCell>
        <mxCell id="tPRsiFmyDKU2fb7vzfHu-84" value="" style="endArrow=none;html=1;" parent="1" edge="1">
          <mxGeometry width="50" height="50" relative="1" as="geometry">
            <mxPoint x="560" y="1760" as="sourcePoint"/>
            <mxPoint x="920" y="1760" as="targetPoint"/>
          </mxGeometry>
        </mxCell>
        <mxCell id="tPRsiFmyDKU2fb7vzfHu-85" value="" style="endArrow=none;html=1;" parent="1" edge="1">
          <mxGeometry width="50" height="50" relative="1" as="geometry">
            <mxPoint x="920" y="1760" as="sourcePoint"/>
            <mxPoint x="919.5" y="880" as="targetPoint"/>
          </mxGeometry>
        </mxCell>
        <mxCell id="tPRsiFmyDKU2fb7vzfHu-86" value="TRIGGER" style="text;html=1;resizable=0;points=[];autosize=1;align=left;verticalAlign=top;spacingTop=-4;" parent="1" vertex="1">
          <mxGeometry x="695.5" y="855" width="70" height="20" as="geometry"/>
        </mxCell>
        <mxCell id="tPRsiFmyDKU2fb7vzfHu-87" value="" style="endArrow=none;html=1;" parent="1" edge="1">
          <mxGeometry width="50" height="50" relative="1" as="geometry">
            <mxPoint x="480" y="1240" as="sourcePoint"/>
            <mxPoint x="560" y="1240" as="targetPoint"/>
          </mxGeometry>
        </mxCell>
        <mxCell id="tPRsiFmyDKU2fb7vzfHu-88" value="" style="endArrow=none;html=1;" parent="1" edge="1">
          <mxGeometry width="50" height="50" relative="1" as="geometry">
            <mxPoint x="480" y="1200" as="sourcePoint"/>
            <mxPoint x="560" y="1200" as="targetPoint"/>
          </mxGeometry>
        </mxCell>
        <mxCell id="tPRsiFmyDKU2fb7vzfHu-89" value="" style="endArrow=none;html=1;" parent="1" edge="1">
          <mxGeometry width="50" height="50" relative="1" as="geometry">
            <mxPoint x="480" y="1160" as="sourcePoint"/>
            <mxPoint x="560" y="1160" as="targetPoint"/>
          </mxGeometry>
        </mxCell>
        <mxCell id="tPRsiFmyDKU2fb7vzfHu-90" value="" style="endArrow=none;html=1;" parent="1" edge="1">
          <mxGeometry width="50" height="50" relative="1" as="geometry">
            <mxPoint x="480" y="1000" as="sourcePoint"/>
            <mxPoint x="560" y="1000" as="targetPoint"/>
          </mxGeometry>
        </mxCell>
        <mxCell id="tPRsiFmyDKU2fb7vzfHu-91" value="" style="endArrow=none;html=1;" parent="1" edge="1">
          <mxGeometry width="50" height="50" relative="1" as="geometry">
            <mxPoint x="480" y="1040" as="sourcePoint"/>
            <mxPoint x="560" y="1040" as="targetPoint"/>
          </mxGeometry>
        </mxCell>
        <mxCell id="tPRsiFmyDKU2fb7vzfHu-92" value="" style="endArrow=none;html=1;" parent="1" edge="1">
          <mxGeometry width="50" height="50" relative="1" as="geometry">
            <mxPoint x="480" y="1080" as="sourcePoint"/>
            <mxPoint x="560" y="1080" as="targetPoint"/>
          </mxGeometry>
        </mxCell>
        <mxCell id="tPRsiFmyDKU2fb7vzfHu-93" value="4" style="text;html=1;resizable=0;points=[];autosize=1;align=left;verticalAlign=top;spacingTop=-4;" parent="1" vertex="1">
          <mxGeometry x="500" y="981" width="20" height="20" as="geometry"/>
        </mxCell>
        <mxCell id="tPRsiFmyDKU2fb7vzfHu-94" value="5" style="text;html=1;resizable=0;points=[];autosize=1;align=left;verticalAlign=top;spacingTop=-4;" parent="1" vertex="1">
          <mxGeometry x="500" y="1020" width="20" height="20" as="geometry"/>
        </mxCell>
        <mxCell id="tPRsiFmyDKU2fb7vzfHu-95" value="6" style="text;html=1;resizable=0;points=[];autosize=1;align=left;verticalAlign=top;spacingTop=-4;" parent="1" vertex="1">
          <mxGeometry x="500" y="1059" width="20" height="20" as="geometry"/>
        </mxCell>
        <mxCell id="tPRsiFmyDKU2fb7vzfHu-96" value="10" style="text;html=1;resizable=0;points=[];autosize=1;align=left;verticalAlign=top;spacingTop=-4;" parent="1" vertex="1">
          <mxGeometry x="500" y="1140" width="30" height="20" as="geometry"/>
        </mxCell>
        <mxCell id="tPRsiFmyDKU2fb7vzfHu-97" value="11" style="text;html=1;resizable=0;points=[];autosize=1;align=left;verticalAlign=top;spacingTop=-4;" parent="1" vertex="1">
          <mxGeometry x="500" y="1180" width="30" height="20" as="geometry"/>
        </mxCell>
        <mxCell id="tPRsiFmyDKU2fb7vzfHu-98" value="12" style="text;html=1;resizable=0;points=[];autosize=1;align=left;verticalAlign=top;spacingTop=-4;" parent="1" vertex="1">
          <mxGeometry x="500" y="1220" width="30" height="20" as="geometry"/>
        </mxCell>
        <mxCell id="tPRsiFmyDKU2fb7vzfHu-99" value="1" style="text;html=1;resizable=0;points=[];autosize=1;align=left;verticalAlign=top;spacingTop=-4;" parent="1" vertex="1">
          <mxGeometry x="60" y="910" width="20" height="20" as="geometry"/>
        </mxCell>
        <mxCell id="tPRsiFmyDKU2fb7vzfHu-100" value="" style="endArrow=none;html=1;" parent="1" edge="1">
          <mxGeometry width="50" height="50" relative="1" as="geometry">
            <mxPoint x="40" y="929" as="sourcePoint"/>
            <mxPoint x="120" y="929" as="targetPoint"/>
          </mxGeometry>
        </mxCell>
        <mxCell id="tPRsiFmyDKU2fb7vzfHu-101" value="2" style="text;html=1;resizable=0;points=[];autosize=1;align=left;verticalAlign=top;spacingTop=-4;" parent="1" vertex="1">
          <mxGeometry x="60" y="949" width="20" height="20" as="geometry"/>
        </mxCell>
        <mxCell id="tPRsiFmyDKU2fb7vzfHu-102" value="" style="endArrow=none;html=1;" parent="1" edge="1">
          <mxGeometry width="50" height="50" relative="1" as="geometry">
            <mxPoint x="40" y="969" as="sourcePoint"/>
            <mxPoint x="120" y="969" as="targetPoint"/>
          </mxGeometry>
        </mxCell>
        <mxCell id="tPRsiFmyDKU2fb7vzfHu-103" value="3" style="text;html=1;resizable=0;points=[];autosize=1;align=left;verticalAlign=top;spacingTop=-4;" parent="1" vertex="1">
          <mxGeometry x="60" y="988" width="20" height="20" as="geometry"/>
        </mxCell>
        <mxCell id="tPRsiFmyDKU2fb7vzfHu-104" value="" style="endArrow=none;html=1;" parent="1" edge="1">
          <mxGeometry width="50" height="50" relative="1" as="geometry">
            <mxPoint x="40" y="1009" as="sourcePoint"/>
            <mxPoint x="120" y="1009" as="targetPoint"/>
          </mxGeometry>
        </mxCell>
        <mxCell id="tPRsiFmyDKU2fb7vzfHu-105" value="7" style="text;html=1;resizable=0;points=[];autosize=1;align=left;verticalAlign=top;spacingTop=-4;" parent="1" vertex="1">
          <mxGeometry x="60" y="1100" width="20" height="20" as="geometry"/>
        </mxCell>
        <mxCell id="tPRsiFmyDKU2fb7vzfHu-106" value="" style="endArrow=none;html=1;" parent="1" edge="1">
          <mxGeometry width="50" height="50" relative="1" as="geometry">
            <mxPoint x="40" y="1119" as="sourcePoint"/>
            <mxPoint x="120" y="1119" as="targetPoint"/>
          </mxGeometry>
        </mxCell>
        <mxCell id="tPRsiFmyDKU2fb7vzfHu-107" value="8" style="text;html=1;resizable=0;points=[];autosize=1;align=left;verticalAlign=top;spacingTop=-4;" parent="1" vertex="1">
          <mxGeometry x="60" y="1139" width="20" height="20" as="geometry"/>
        </mxCell>
        <mxCell id="tPRsiFmyDKU2fb7vzfHu-108" value="" style="endArrow=none;html=1;" parent="1" edge="1">
          <mxGeometry width="50" height="50" relative="1" as="geometry">
            <mxPoint x="40" y="1159" as="sourcePoint"/>
            <mxPoint x="120" y="1159" as="targetPoint"/>
          </mxGeometry>
        </mxCell>
        <mxCell id="tPRsiFmyDKU2fb7vzfHu-109" value="9" style="text;html=1;resizable=0;points=[];autosize=1;align=left;verticalAlign=top;spacingTop=-4;" parent="1" vertex="1">
          <mxGeometry x="60" y="1178" width="20" height="20" as="geometry"/>
        </mxCell>
        <mxCell id="tPRsiFmyDKU2fb7vzfHu-110" value="" style="endArrow=none;html=1;" parent="1" edge="1">
          <mxGeometry width="50" height="50" relative="1" as="geometry">
            <mxPoint x="40" y="1199" as="sourcePoint"/>
            <mxPoint x="120" y="1199" as="targetPoint"/>
          </mxGeometry>
        </mxCell>
        <mxCell id="tPRsiFmyDKU2fb7vzfHu-111" value="1" style="text;html=1;resizable=0;points=[];autosize=1;align=left;verticalAlign=top;spacingTop=-4;" parent="1" vertex="1">
          <mxGeometry x="940" y="914.5" width="20" height="20" as="geometry"/>
        </mxCell>
        <mxCell id="tPRsiFmyDKU2fb7vzfHu-112" value="2" style="text;html=1;resizable=0;points=[];autosize=1;align=left;verticalAlign=top;spacingTop=-4;" parent="1" vertex="1">
          <mxGeometry x="940" y="953.5" width="20" height="20" as="geometry"/>
        </mxCell>
        <mxCell id="tPRsiFmyDKU2fb7vzfHu-113" value="3" style="text;html=1;resizable=0;points=[];autosize=1;align=left;verticalAlign=top;spacingTop=-4;" parent="1" vertex="1">
          <mxGeometry x="940" y="992.5" width="20" height="20" as="geometry"/>
        </mxCell>
        <mxCell id="tPRsiFmyDKU2fb7vzfHu-114" value="7" style="text;html=1;resizable=0;points=[];autosize=1;align=left;verticalAlign=top;spacingTop=-4;" parent="1" vertex="1">
          <mxGeometry x="940" y="1104.5" width="20" height="20" as="geometry"/>
        </mxCell>
        <mxCell id="tPRsiFmyDKU2fb7vzfHu-115" value="8" style="text;html=1;resizable=0;points=[];autosize=1;align=left;verticalAlign=top;spacingTop=-4;" parent="1" vertex="1">
          <mxGeometry x="940" y="1143.5" width="20" height="20" as="geometry"/>
        </mxCell>
        <mxCell id="tPRsiFmyDKU2fb7vzfHu-116" value="9" style="text;html=1;resizable=0;points=[];autosize=1;align=left;verticalAlign=top;spacingTop=-4;" parent="1" vertex="1">
          <mxGeometry x="940" y="1182.5" width="20" height="20" as="geometry"/>
        </mxCell>
        <mxCell id="tPRsiFmyDKU2fb7vzfHu-117" value="" style="endArrow=none;html=1;" parent="1" edge="1">
          <mxGeometry width="50" height="50" relative="1" as="geometry">
            <mxPoint x="920" y="1203.5" as="sourcePoint"/>
            <mxPoint x="1000" y="1203.5" as="targetPoint"/>
          </mxGeometry>
        </mxCell>
        <mxCell id="tPRsiFmyDKU2fb7vzfHu-118" value="" style="endArrow=none;html=1;" parent="1" edge="1">
          <mxGeometry width="50" height="50" relative="1" as="geometry">
            <mxPoint x="920" y="1163.5" as="sourcePoint"/>
            <mxPoint x="1000" y="1163.5" as="targetPoint"/>
          </mxGeometry>
        </mxCell>
        <mxCell id="tPRsiFmyDKU2fb7vzfHu-119" value="" style="endArrow=none;html=1;" parent="1" edge="1">
          <mxGeometry width="50" height="50" relative="1" as="geometry">
            <mxPoint x="920" y="1123.5" as="sourcePoint"/>
            <mxPoint x="1000" y="1123.5" as="targetPoint"/>
          </mxGeometry>
        </mxCell>
        <mxCell id="tPRsiFmyDKU2fb7vzfHu-120" value="" style="endArrow=none;html=1;" parent="1" edge="1">
          <mxGeometry width="50" height="50" relative="1" as="geometry">
            <mxPoint x="920" y="1013.5" as="sourcePoint"/>
            <mxPoint x="1000" y="1013.5" as="targetPoint"/>
          </mxGeometry>
        </mxCell>
        <mxCell id="tPRsiFmyDKU2fb7vzfHu-121" value="" style="endArrow=none;html=1;" parent="1" edge="1">
          <mxGeometry width="50" height="50" relative="1" as="geometry">
            <mxPoint x="920" y="973.5" as="sourcePoint"/>
            <mxPoint x="1000" y="973.5" as="targetPoint"/>
          </mxGeometry>
        </mxCell>
        <mxCell id="tPRsiFmyDKU2fb7vzfHu-122" value="" style="endArrow=none;html=1;" parent="1" edge="1">
          <mxGeometry width="50" height="50" relative="1" as="geometry">
            <mxPoint x="920" y="933.5" as="sourcePoint"/>
            <mxPoint x="1000" y="933.5" as="targetPoint"/>
          </mxGeometry>
        </mxCell>
        <mxCell id="tPRsiFmyDKU2fb7vzfHu-153" value="&lt;font style=&quot;font-size: 26px&quot;&gt;&amp;amp;&lt;/font&gt;" style="rounded=0;whiteSpace=wrap;html=1;" parent="1" vertex="1">
          <mxGeometry x="161" y="1320" width="80" height="120" as="geometry"/>
        </mxCell>
        <mxCell id="tPRsiFmyDKU2fb7vzfHu-154" value="C(10)" style="text;html=1;resizable=0;points=[];autosize=1;align=left;verticalAlign=top;spacingTop=-4;" parent="1" vertex="1">
          <mxGeometry x="241" y="1360" width="50" height="20" as="geometry"/>
        </mxCell>
        <mxCell id="tPRsiFmyDKU2fb7vzfHu-155" value="" style="endArrow=none;html=1;" parent="1" edge="1">
          <mxGeometry width="50" height="50" relative="1" as="geometry">
            <mxPoint x="121" y="1400" as="sourcePoint"/>
            <mxPoint x="161" y="1400" as="targetPoint"/>
          </mxGeometry>
        </mxCell>
        <mxCell id="tPRsiFmyDKU2fb7vzfHu-156" value="c(8)" style="text;html=1;resizable=0;points=[];autosize=1;align=left;verticalAlign=top;spacingTop=-4;" parent="1" vertex="1">
          <mxGeometry x="121" y="1381" width="40" height="20" as="geometry"/>
        </mxCell>
        <mxCell id="tPRsiFmyDKU2fb7vzfHu-157" value="y3(12)" style="text;html=1;resizable=0;points=[];autosize=1;align=left;verticalAlign=top;spacingTop=-4;" parent="1" vertex="1">
          <mxGeometry x="121" y="1340" width="50" height="20" as="geometry"/>
        </mxCell>
        <mxCell id="tPRsiFmyDKU2fb7vzfHu-158" value="" style="endArrow=none;html=1;" parent="1" edge="1">
          <mxGeometry width="50" height="50" relative="1" as="geometry">
            <mxPoint x="121" y="1360" as="sourcePoint"/>
            <mxPoint x="161" y="1360" as="targetPoint"/>
          </mxGeometry>
        </mxCell>
        <mxCell id="tPRsiFmyDKU2fb7vzfHu-159" value="" style="endArrow=none;html=1;" parent="1" edge="1">
          <mxGeometry width="50" height="50" relative="1" as="geometry">
            <mxPoint x="241" y="1379" as="sourcePoint"/>
            <mxPoint x="480" y="1379" as="targetPoint"/>
          </mxGeometry>
        </mxCell>
        <mxCell id="tPRsiFmyDKU2fb7vzfHu-168" value="" style="rounded=0;whiteSpace=wrap;html=1;" parent="1" vertex="1">
          <mxGeometry x="640" y="888" width="120" height="160" as="geometry"/>
        </mxCell>
        <mxCell id="tPRsiFmyDKU2fb7vzfHu-169" value="&lt;div&gt;&lt;span style=&quot;line-height: 60%&quot;&gt;T&lt;/span&gt;&lt;/div&gt;" style="rounded=0;whiteSpace=wrap;html=1;align=center;verticalAlign=top;" parent="1" vertex="1">
          <mxGeometry x="680" y="888" width="80" height="160" as="geometry"/>
        </mxCell>
        <mxCell id="tPRsiFmyDKU2fb7vzfHu-170" value="!R" style="rounded=0;whiteSpace=wrap;html=1;" parent="1" vertex="1">
          <mxGeometry x="640" y="888" width="40" height="40" as="geometry"/>
        </mxCell>
        <mxCell id="tPRsiFmyDKU2fb7vzfHu-171" value="!S" style="rounded=0;whiteSpace=wrap;html=1;" parent="1" vertex="1">
          <mxGeometry x="640" y="1008" width="40" height="40" as="geometry"/>
        </mxCell>
        <mxCell id="tPRsiFmyDKU2fb7vzfHu-172" value="D&lt;br&gt;&lt;br&gt;C" style="rounded=0;whiteSpace=wrap;html=1;" parent="1" vertex="1">
          <mxGeometry x="640" y="928" width="40" height="80" as="geometry"/>
        </mxCell>
        <mxCell id="tPRsiFmyDKU2fb7vzfHu-173" value="!y0(5)" style="text;html=1;resizable=0;points=[];autosize=1;align=left;verticalAlign=top;spacingTop=-4;" parent="1" vertex="1">
          <mxGeometry x="590" y="888" width="50" height="20" as="geometry"/>
        </mxCell>
        <mxCell id="tPRsiFmyDKU2fb7vzfHu-174" value="Q1(7)" style="text;html=1;resizable=0;points=[];autosize=1;align=left;verticalAlign=top;spacingTop=-4;" parent="1" vertex="1">
          <mxGeometry x="590" y="937.5" width="50" height="20" as="geometry"/>
        </mxCell>
        <mxCell id="tPRsiFmyDKU2fb7vzfHu-175" value="C(10)" style="text;html=1;resizable=0;points=[];autosize=1;align=left;verticalAlign=top;spacingTop=-4;" parent="1" vertex="1">
          <mxGeometry x="590" y="958" width="50" height="20" as="geometry"/>
        </mxCell>
        <mxCell id="tPRsiFmyDKU2fb7vzfHu-176" value="!S3(2)" style="text;html=1;resizable=0;points=[];autosize=1;align=left;verticalAlign=top;spacingTop=-4;" parent="1" vertex="1">
          <mxGeometry x="590" y="1008" width="50" height="20" as="geometry"/>
        </mxCell>
        <mxCell id="tPRsiFmyDKU2fb7vzfHu-177" value="Q3(3)" style="text;html=1;resizable=0;points=[];autosize=1;align=left;verticalAlign=top;spacingTop=-4;" parent="1" vertex="1">
          <mxGeometry x="790" y="908" width="50" height="20" as="geometry"/>
        </mxCell>
        <mxCell id="tPRsiFmyDKU2fb7vzfHu-178" value="!Q3" style="text;html=1;resizable=0;points=[];autosize=1;align=left;verticalAlign=top;spacingTop=-4;" parent="1" vertex="1">
          <mxGeometry x="790" y="1007.5" width="30" height="20" as="geometry"/>
        </mxCell>
        <mxCell id="tPRsiFmyDKU2fb7vzfHu-179" value="" style="shape=mxgraph.bpmn.shape;html=1;verticalLabelPosition=bottom;labelBackgroundColor=#ffffff;verticalAlign=top;align=center;perimeter=ellipsePerimeter;outlineConnect=0;outline=end;symbol=general;" parent="1" vertex="1">
          <mxGeometry x="635" y="902.5" width="10" height="10" as="geometry"/>
        </mxCell>
        <mxCell id="tPRsiFmyDKU2fb7vzfHu-180" value="" style="shape=mxgraph.bpmn.shape;html=1;verticalLabelPosition=bottom;labelBackgroundColor=#ffffff;verticalAlign=top;align=center;perimeter=ellipsePerimeter;outlineConnect=0;outline=end;symbol=general;" parent="1" vertex="1">
          <mxGeometry x="635" y="1022.5" width="10" height="10" as="geometry"/>
        </mxCell>
        <mxCell id="tPRsiFmyDKU2fb7vzfHu-181" value="" style="shape=mxgraph.bpmn.shape;html=1;verticalLabelPosition=bottom;labelBackgroundColor=#ffffff;verticalAlign=top;align=center;perimeter=ellipsePerimeter;outlineConnect=0;outline=end;symbol=general;" parent="1" vertex="1">
          <mxGeometry x="755" y="1023" width="10" height="10" as="geometry"/>
        </mxCell>
        <mxCell id="tPRsiFmyDKU2fb7vzfHu-182" value="" style="endArrow=none;html=1;" parent="1" edge="1">
          <mxGeometry width="50" height="50" relative="1" as="geometry">
            <mxPoint x="560" y="1028" as="sourcePoint"/>
            <mxPoint x="640" y="1028" as="targetPoint"/>
          </mxGeometry>
        </mxCell>
        <mxCell id="tPRsiFmyDKU2fb7vzfHu-183" value="" style="endArrow=none;html=1;" parent="1" edge="1">
          <mxGeometry width="50" height="50" relative="1" as="geometry">
            <mxPoint x="560" y="978" as="sourcePoint"/>
            <mxPoint x="640" y="978" as="targetPoint"/>
          </mxGeometry>
        </mxCell>
        <mxCell id="tPRsiFmyDKU2fb7vzfHu-184" value="" style="endArrow=none;html=1;" parent="1" edge="1">
          <mxGeometry width="50" height="50" relative="1" as="geometry">
            <mxPoint x="560" y="957.5" as="sourcePoint"/>
            <mxPoint x="640" y="957.5" as="targetPoint"/>
          </mxGeometry>
        </mxCell>
        <mxCell id="tPRsiFmyDKU2fb7vzfHu-185" value="" style="endArrow=none;html=1;" parent="1" edge="1">
          <mxGeometry width="50" height="50" relative="1" as="geometry">
            <mxPoint x="560" y="908" as="sourcePoint"/>
            <mxPoint x="640" y="908" as="targetPoint"/>
          </mxGeometry>
        </mxCell>
        <mxCell id="tPRsiFmyDKU2fb7vzfHu-186" value="" style="endArrow=none;html=1;" parent="1" edge="1">
          <mxGeometry width="50" height="50" relative="1" as="geometry">
            <mxPoint x="760" y="928" as="sourcePoint"/>
            <mxPoint x="920" y="928" as="targetPoint"/>
          </mxGeometry>
        </mxCell>
        <mxCell id="tPRsiFmyDKU2fb7vzfHu-187" value="" style="endArrow=none;html=1;" parent="1" edge="1">
          <mxGeometry width="50" height="50" relative="1" as="geometry">
            <mxPoint x="760" y="1027.5" as="sourcePoint"/>
            <mxPoint x="920" y="1028" as="targetPoint"/>
          </mxGeometry>
        </mxCell>
        <mxCell id="tPRsiFmyDKU2fb7vzfHu-188" value="" style="rounded=0;whiteSpace=wrap;html=1;" parent="1" vertex="1">
          <mxGeometry x="640" y="1075" width="120" height="160" as="geometry"/>
        </mxCell>
        <mxCell id="tPRsiFmyDKU2fb7vzfHu-189" value="&lt;div&gt;&lt;span style=&quot;line-height: 60%&quot;&gt;T&lt;/span&gt;&lt;/div&gt;" style="rounded=0;whiteSpace=wrap;html=1;align=center;verticalAlign=top;" parent="1" vertex="1">
          <mxGeometry x="680" y="1075" width="80" height="160" as="geometry"/>
        </mxCell>
        <mxCell id="tPRsiFmyDKU2fb7vzfHu-190" value="!R" style="rounded=0;whiteSpace=wrap;html=1;" parent="1" vertex="1">
          <mxGeometry x="640" y="1075" width="40" height="40" as="geometry"/>
        </mxCell>
        <mxCell id="tPRsiFmyDKU2fb7vzfHu-191" value="!S" style="rounded=0;whiteSpace=wrap;html=1;" parent="1" vertex="1">
          <mxGeometry x="640" y="1195" width="40" height="40" as="geometry"/>
        </mxCell>
        <mxCell id="tPRsiFmyDKU2fb7vzfHu-192" value="D&lt;br&gt;&lt;br&gt;C" style="rounded=0;whiteSpace=wrap;html=1;" parent="1" vertex="1">
          <mxGeometry x="640" y="1115" width="40" height="80" as="geometry"/>
        </mxCell>
        <mxCell id="tPRsiFmyDKU2fb7vzfHu-193" value="!y0(5)" style="text;html=1;resizable=0;points=[];autosize=1;align=left;verticalAlign=top;spacingTop=-4;" parent="1" vertex="1">
          <mxGeometry x="590" y="1075" width="50" height="20" as="geometry"/>
        </mxCell>
        <mxCell id="tPRsiFmyDKU2fb7vzfHu-194" value="Q3(8)" style="text;html=1;resizable=0;points=[];autosize=1;align=left;verticalAlign=top;spacingTop=-4;" parent="1" vertex="1">
          <mxGeometry x="590" y="1124.5" width="50" height="20" as="geometry"/>
        </mxCell>
        <mxCell id="tPRsiFmyDKU2fb7vzfHu-195" value="C(10)" style="text;html=1;resizable=0;points=[];autosize=1;align=left;verticalAlign=top;spacingTop=-4;" parent="1" vertex="1">
          <mxGeometry x="590" y="1145" width="50" height="20" as="geometry"/>
        </mxCell>
        <mxCell id="tPRsiFmyDKU2fb7vzfHu-196" value="!S2(6)" style="text;html=1;resizable=0;points=[];autosize=1;align=left;verticalAlign=top;spacingTop=-4;" parent="1" vertex="1">
          <mxGeometry x="590" y="1195" width="50" height="20" as="geometry"/>
        </mxCell>
        <mxCell id="tPRsiFmyDKU2fb7vzfHu-197" value="Q2(7)" style="text;html=1;resizable=0;points=[];autosize=1;align=left;verticalAlign=top;spacingTop=-4;" parent="1" vertex="1">
          <mxGeometry x="790" y="1095" width="50" height="20" as="geometry"/>
        </mxCell>
        <mxCell id="tPRsiFmyDKU2fb7vzfHu-198" value="!Q2(9)" style="text;html=1;resizable=0;points=[];autosize=1;align=left;verticalAlign=top;spacingTop=-4;" parent="1" vertex="1">
          <mxGeometry x="790" y="1194.5" width="50" height="20" as="geometry"/>
        </mxCell>
        <mxCell id="tPRsiFmyDKU2fb7vzfHu-199" value="" style="shape=mxgraph.bpmn.shape;html=1;verticalLabelPosition=bottom;labelBackgroundColor=#ffffff;verticalAlign=top;align=center;perimeter=ellipsePerimeter;outlineConnect=0;outline=end;symbol=general;" parent="1" vertex="1">
          <mxGeometry x="635" y="1089.5" width="10" height="10" as="geometry"/>
        </mxCell>
        <mxCell id="tPRsiFmyDKU2fb7vzfHu-200" value="" style="shape=mxgraph.bpmn.shape;html=1;verticalLabelPosition=bottom;labelBackgroundColor=#ffffff;verticalAlign=top;align=center;perimeter=ellipsePerimeter;outlineConnect=0;outline=end;symbol=general;" parent="1" vertex="1">
          <mxGeometry x="635" y="1209.5" width="10" height="10" as="geometry"/>
        </mxCell>
        <mxCell id="tPRsiFmyDKU2fb7vzfHu-201" value="" style="shape=mxgraph.bpmn.shape;html=1;verticalLabelPosition=bottom;labelBackgroundColor=#ffffff;verticalAlign=top;align=center;perimeter=ellipsePerimeter;outlineConnect=0;outline=end;symbol=general;" parent="1" vertex="1">
          <mxGeometry x="755" y="1210" width="10" height="10" as="geometry"/>
        </mxCell>
        <mxCell id="tPRsiFmyDKU2fb7vzfHu-202" value="" style="endArrow=none;html=1;" parent="1" edge="1">
          <mxGeometry width="50" height="50" relative="1" as="geometry">
            <mxPoint x="560" y="1215" as="sourcePoint"/>
            <mxPoint x="640" y="1215" as="targetPoint"/>
          </mxGeometry>
        </mxCell>
        <mxCell id="tPRsiFmyDKU2fb7vzfHu-203" value="" style="endArrow=none;html=1;" parent="1" edge="1">
          <mxGeometry width="50" height="50" relative="1" as="geometry">
            <mxPoint x="560" y="1165" as="sourcePoint"/>
            <mxPoint x="640" y="1165" as="targetPoint"/>
          </mxGeometry>
        </mxCell>
        <mxCell id="tPRsiFmyDKU2fb7vzfHu-204" value="" style="endArrow=none;html=1;" parent="1" edge="1">
          <mxGeometry width="50" height="50" relative="1" as="geometry">
            <mxPoint x="560" y="1144.5" as="sourcePoint"/>
            <mxPoint x="640" y="1144.5" as="targetPoint"/>
          </mxGeometry>
        </mxCell>
        <mxCell id="tPRsiFmyDKU2fb7vzfHu-205" value="" style="endArrow=none;html=1;" parent="1" edge="1">
          <mxGeometry width="50" height="50" relative="1" as="geometry">
            <mxPoint x="560" y="1095" as="sourcePoint"/>
            <mxPoint x="640" y="1095" as="targetPoint"/>
          </mxGeometry>
        </mxCell>
        <mxCell id="tPRsiFmyDKU2fb7vzfHu-206" value="" style="endArrow=none;html=1;" parent="1" edge="1">
          <mxGeometry width="50" height="50" relative="1" as="geometry">
            <mxPoint x="760" y="1115" as="sourcePoint"/>
            <mxPoint x="920" y="1115" as="targetPoint"/>
          </mxGeometry>
        </mxCell>
        <mxCell id="tPRsiFmyDKU2fb7vzfHu-207" value="" style="endArrow=none;html=1;" parent="1" edge="1">
          <mxGeometry width="50" height="50" relative="1" as="geometry">
            <mxPoint x="760" y="1214.5" as="sourcePoint"/>
            <mxPoint x="920" y="1215" as="targetPoint"/>
          </mxGeometry>
        </mxCell>
        <mxCell id="tPRsiFmyDKU2fb7vzfHu-208" value="" style="rounded=0;whiteSpace=wrap;html=1;" parent="1" vertex="1">
          <mxGeometry x="640" y="1260" width="120" height="160" as="geometry"/>
        </mxCell>
        <mxCell id="tPRsiFmyDKU2fb7vzfHu-209" value="&lt;div&gt;&lt;span style=&quot;line-height: 60%&quot;&gt;T&lt;/span&gt;&lt;/div&gt;" style="rounded=0;whiteSpace=wrap;html=1;align=center;verticalAlign=top;" parent="1" vertex="1">
          <mxGeometry x="680" y="1260" width="80" height="160" as="geometry"/>
        </mxCell>
        <mxCell id="tPRsiFmyDKU2fb7vzfHu-210" value="!R" style="rounded=0;whiteSpace=wrap;html=1;" parent="1" vertex="1">
          <mxGeometry x="640" y="1260" width="40" height="40" as="geometry"/>
        </mxCell>
        <mxCell id="tPRsiFmyDKU2fb7vzfHu-211" value="!S" style="rounded=0;whiteSpace=wrap;html=1;" parent="1" vertex="1">
          <mxGeometry x="640" y="1380" width="40" height="40" as="geometry"/>
        </mxCell>
        <mxCell id="tPRsiFmyDKU2fb7vzfHu-212" value="D&lt;br&gt;&lt;br&gt;C" style="rounded=0;whiteSpace=wrap;html=1;" parent="1" vertex="1">
          <mxGeometry x="640" y="1300" width="40" height="80" as="geometry"/>
        </mxCell>
        <mxCell id="tPRsiFmyDKU2fb7vzfHu-213" value="!y0(5)" style="text;html=1;resizable=0;points=[];autosize=1;align=left;verticalAlign=top;spacingTop=-4;" parent="1" vertex="1">
          <mxGeometry x="590" y="1260" width="50" height="20" as="geometry"/>
        </mxCell>
        <mxCell id="tPRsiFmyDKU2fb7vzfHu-214" value="Q2(3)" style="text;html=1;resizable=0;points=[];autosize=1;align=left;verticalAlign=top;spacingTop=-4;" parent="1" vertex="1">
          <mxGeometry x="590" y="1309.5" width="50" height="20" as="geometry"/>
        </mxCell>
        <mxCell id="tPRsiFmyDKU2fb7vzfHu-215" value="C(10)" style="text;html=1;resizable=0;points=[];autosize=1;align=left;verticalAlign=top;spacingTop=-4;" parent="1" vertex="1">
          <mxGeometry x="590" y="1330" width="50" height="20" as="geometry"/>
        </mxCell>
        <mxCell id="tPRsiFmyDKU2fb7vzfHu-216" value="!S1(11)" style="text;html=1;resizable=0;points=[];autosize=1;align=left;verticalAlign=top;spacingTop=-4;" parent="1" vertex="1">
          <mxGeometry x="590" y="1380" width="50" height="20" as="geometry"/>
        </mxCell>
        <mxCell id="tPRsiFmyDKU2fb7vzfHu-217" value="Q1(8)" style="text;html=1;resizable=0;points=[];autosize=1;align=left;verticalAlign=top;spacingTop=-4;" parent="1" vertex="1">
          <mxGeometry x="790" y="1280" width="50" height="20" as="geometry"/>
        </mxCell>
        <mxCell id="tPRsiFmyDKU2fb7vzfHu-218" value="!Q1" style="text;html=1;resizable=0;points=[];autosize=1;align=left;verticalAlign=top;spacingTop=-4;" parent="1" vertex="1">
          <mxGeometry x="790" y="1379.5" width="30" height="20" as="geometry"/>
        </mxCell>
        <mxCell id="tPRsiFmyDKU2fb7vzfHu-219" value="" style="shape=mxgraph.bpmn.shape;html=1;verticalLabelPosition=bottom;labelBackgroundColor=#ffffff;verticalAlign=top;align=center;perimeter=ellipsePerimeter;outlineConnect=0;outline=end;symbol=general;" parent="1" vertex="1">
          <mxGeometry x="635" y="1273.5" width="10" height="10" as="geometry"/>
        </mxCell>
        <mxCell id="tPRsiFmyDKU2fb7vzfHu-220" value="" style="shape=mxgraph.bpmn.shape;html=1;verticalLabelPosition=bottom;labelBackgroundColor=#ffffff;verticalAlign=top;align=center;perimeter=ellipsePerimeter;outlineConnect=0;outline=end;symbol=general;" parent="1" vertex="1">
          <mxGeometry x="635" y="1393.5" width="10" height="10" as="geometry"/>
        </mxCell>
        <mxCell id="tPRsiFmyDKU2fb7vzfHu-221" value="" style="shape=mxgraph.bpmn.shape;html=1;verticalLabelPosition=bottom;labelBackgroundColor=#ffffff;verticalAlign=top;align=center;perimeter=ellipsePerimeter;outlineConnect=0;outline=end;symbol=general;" parent="1" vertex="1">
          <mxGeometry x="755" y="1394" width="10" height="10" as="geometry"/>
        </mxCell>
        <mxCell id="tPRsiFmyDKU2fb7vzfHu-222" value="" style="endArrow=none;html=1;" parent="1" edge="1">
          <mxGeometry width="50" height="50" relative="1" as="geometry">
            <mxPoint x="560" y="1400" as="sourcePoint"/>
            <mxPoint x="640" y="1400" as="targetPoint"/>
          </mxGeometry>
        </mxCell>
        <mxCell id="tPRsiFmyDKU2fb7vzfHu-223" value="" style="endArrow=none;html=1;" parent="1" edge="1">
          <mxGeometry width="50" height="50" relative="1" as="geometry">
            <mxPoint x="560" y="1350" as="sourcePoint"/>
            <mxPoint x="640" y="1350" as="targetPoint"/>
          </mxGeometry>
        </mxCell>
        <mxCell id="tPRsiFmyDKU2fb7vzfHu-224" value="" style="endArrow=none;html=1;" parent="1" edge="1">
          <mxGeometry width="50" height="50" relative="1" as="geometry">
            <mxPoint x="560" y="1329.5" as="sourcePoint"/>
            <mxPoint x="640" y="1329.5" as="targetPoint"/>
          </mxGeometry>
        </mxCell>
        <mxCell id="tPRsiFmyDKU2fb7vzfHu-225" value="" style="endArrow=none;html=1;" parent="1" edge="1">
          <mxGeometry width="50" height="50" relative="1" as="geometry">
            <mxPoint x="560" y="1280" as="sourcePoint"/>
            <mxPoint x="640" y="1280" as="targetPoint"/>
          </mxGeometry>
        </mxCell>
        <mxCell id="tPRsiFmyDKU2fb7vzfHu-226" value="" style="endArrow=none;html=1;" parent="1" edge="1">
          <mxGeometry width="50" height="50" relative="1" as="geometry">
            <mxPoint x="760" y="1300" as="sourcePoint"/>
            <mxPoint x="920" y="1300" as="targetPoint"/>
          </mxGeometry>
        </mxCell>
        <mxCell id="tPRsiFmyDKU2fb7vzfHu-227" value="" style="endArrow=none;html=1;" parent="1" edge="1">
          <mxGeometry width="50" height="50" relative="1" as="geometry">
            <mxPoint x="760" y="1399.5" as="sourcePoint"/>
            <mxPoint x="920" y="1400" as="targetPoint"/>
          </mxGeometry>
        </mxCell>
        <mxCell id="tPRsiFmyDKU2fb7vzfHu-228" value="&lt;font style=&quot;font-size: 26px&quot;&gt;&amp;amp;&lt;/font&gt;" style="rounded=0;whiteSpace=wrap;html=1;" parent="1" vertex="1">
          <mxGeometry x="600" y="1455" width="80" height="120" as="geometry"/>
        </mxCell>
        <mxCell id="tPRsiFmyDKU2fb7vzfHu-229" value="X1" style="text;html=1;resizable=0;points=[];autosize=1;align=left;verticalAlign=top;spacingTop=-4;" parent="1" vertex="1">
          <mxGeometry x="680" y="1495" width="30" height="20" as="geometry"/>
        </mxCell>
        <mxCell id="tPRsiFmyDKU2fb7vzfHu-230" value="Q1(3)" style="text;html=1;resizable=0;points=[];autosize=1;align=left;verticalAlign=top;spacingTop=-4;" parent="1" vertex="1">
          <mxGeometry x="560" y="1536" width="50" height="20" as="geometry"/>
        </mxCell>
        <mxCell id="tPRsiFmyDKU2fb7vzfHu-231" value="" style="endArrow=none;html=1;" parent="1" edge="1">
          <mxGeometry width="50" height="50" relative="1" as="geometry">
            <mxPoint x="560" y="1556" as="sourcePoint"/>
            <mxPoint x="600" y="1556" as="targetPoint"/>
          </mxGeometry>
        </mxCell>
        <mxCell id="tPRsiFmyDKU2fb7vzfHu-232" value="!Q2(9)" style="text;html=1;resizable=0;points=[];autosize=1;align=left;verticalAlign=top;spacingTop=-4;" parent="1" vertex="1">
          <mxGeometry x="560" y="1496" width="50" height="20" as="geometry"/>
        </mxCell>
        <mxCell id="tPRsiFmyDKU2fb7vzfHu-233" value="" style="endArrow=none;html=1;" parent="1" edge="1">
          <mxGeometry width="50" height="50" relative="1" as="geometry">
            <mxPoint x="560" y="1516" as="sourcePoint"/>
            <mxPoint x="600" y="1516" as="targetPoint"/>
          </mxGeometry>
        </mxCell>
        <mxCell id="tPRsiFmyDKU2fb7vzfHu-234" value="Q3(8)" style="text;html=1;resizable=0;points=[];autosize=1;align=left;verticalAlign=top;spacingTop=-4;" parent="1" vertex="1">
          <mxGeometry x="560" y="1456" width="50" height="20" as="geometry"/>
        </mxCell>
        <mxCell id="tPRsiFmyDKU2fb7vzfHu-235" value="" style="endArrow=none;html=1;" parent="1" edge="1">
          <mxGeometry width="50" height="50" relative="1" as="geometry">
            <mxPoint x="560" y="1476" as="sourcePoint"/>
            <mxPoint x="600" y="1476" as="targetPoint"/>
          </mxGeometry>
        </mxCell>
        <mxCell id="tPRsiFmyDKU2fb7vzfHu-236" value="" style="endArrow=none;html=1;" parent="1" edge="1">
          <mxGeometry width="50" height="50" relative="1" as="geometry">
            <mxPoint x="680" y="1516" as="sourcePoint"/>
            <mxPoint x="920" y="1516" as="targetPoint"/>
          </mxGeometry>
        </mxCell>
        <mxCell id="tPRsiFmyDKU2fb7vzfHu-251" value="&lt;font style=&quot;font-size: 26px&quot;&gt;&amp;amp;&lt;/font&gt;" style="rounded=0;whiteSpace=wrap;html=1;" parent="1" vertex="1">
          <mxGeometry x="161" y="1476" width="80" height="120" as="geometry"/>
        </mxCell>
        <mxCell id="tPRsiFmyDKU2fb7vzfHu-252" value="!S1(11)" style="text;html=1;resizable=0;points=[];autosize=1;align=left;verticalAlign=top;spacingTop=-4;" parent="1" vertex="1">
          <mxGeometry x="241" y="1516" width="50" height="20" as="geometry"/>
        </mxCell>
        <mxCell id="tPRsiFmyDKU2fb7vzfHu-253" value="" style="shape=mxgraph.bpmn.shape;html=1;verticalLabelPosition=bottom;labelBackgroundColor=#ffffff;verticalAlign=top;align=center;perimeter=ellipsePerimeter;outlineConnect=0;outline=end;symbol=general;" parent="1" vertex="1">
          <mxGeometry x="236" y="1531" width="10" height="10" as="geometry"/>
        </mxCell>
        <mxCell id="tPRsiFmyDKU2fb7vzfHu-254" value="" style="endArrow=none;html=1;" parent="1" edge="1">
          <mxGeometry width="50" height="50" relative="1" as="geometry">
            <mxPoint x="241" y="1535" as="sourcePoint"/>
            <mxPoint x="480" y="1535" as="targetPoint"/>
          </mxGeometry>
        </mxCell>
        <mxCell id="tPRsiFmyDKU2fb7vzfHu-255" value="t1(3)" style="text;html=1;resizable=0;points=[];autosize=1;align=left;verticalAlign=top;spacingTop=-4;" parent="1" vertex="1">
          <mxGeometry x="121" y="1537" width="40" height="20" as="geometry"/>
        </mxCell>
        <mxCell id="tPRsiFmyDKU2fb7vzfHu-256" value="" style="endArrow=none;html=1;" parent="1" edge="1">
          <mxGeometry width="50" height="50" relative="1" as="geometry">
            <mxPoint x="121" y="1556" as="sourcePoint"/>
            <mxPoint x="161" y="1556" as="targetPoint"/>
          </mxGeometry>
        </mxCell>
        <mxCell id="tPRsiFmyDKU2fb7vzfHu-257" value="y2(4)" style="text;html=1;resizable=0;points=[];autosize=1;align=left;verticalAlign=top;spacingTop=-4;" parent="1" vertex="1">
          <mxGeometry x="121" y="1496" width="40" height="20" as="geometry"/>
        </mxCell>
        <mxCell id="tPRsiFmyDKU2fb7vzfHu-258" value="" style="endArrow=none;html=1;" parent="1" edge="1">
          <mxGeometry width="50" height="50" relative="1" as="geometry">
            <mxPoint x="121" y="1516" as="sourcePoint"/>
            <mxPoint x="161" y="1516" as="targetPoint"/>
          </mxGeometry>
        </mxCell>
        <mxCell id="tPRsiFmyDKU2fb7vzfHu-259" value="&lt;font style=&quot;font-size: 26px&quot;&gt;&amp;amp;&lt;/font&gt;" style="rounded=0;whiteSpace=wrap;html=1;" parent="1" vertex="1">
          <mxGeometry x="601" y="1590" width="80" height="120" as="geometry"/>
        </mxCell>
        <mxCell id="tPRsiFmyDKU2fb7vzfHu-260" value="!S3(2)" style="text;html=1;resizable=0;points=[];autosize=1;align=left;verticalAlign=top;spacingTop=-4;" parent="1" vertex="1">
          <mxGeometry x="681" y="1630" width="50" height="20" as="geometry"/>
        </mxCell>
        <mxCell id="tPRsiFmyDKU2fb7vzfHu-261" value="" style="shape=mxgraph.bpmn.shape;html=1;verticalLabelPosition=bottom;labelBackgroundColor=#ffffff;verticalAlign=top;align=center;perimeter=ellipsePerimeter;outlineConnect=0;outline=end;symbol=general;" parent="1" vertex="1">
          <mxGeometry x="676" y="1645" width="10" height="10" as="geometry"/>
        </mxCell>
        <mxCell id="tPRsiFmyDKU2fb7vzfHu-262" value="t3(1)" style="text;html=1;resizable=0;points=[];autosize=1;align=left;verticalAlign=top;spacingTop=-4;" parent="1" vertex="1">
          <mxGeometry x="561" y="1651" width="40" height="20" as="geometry"/>
        </mxCell>
        <mxCell id="tPRsiFmyDKU2fb7vzfHu-263" value="" style="endArrow=none;html=1;" parent="1" edge="1">
          <mxGeometry width="50" height="50" relative="1" as="geometry">
            <mxPoint x="561" y="1670" as="sourcePoint"/>
            <mxPoint x="601" y="1670" as="targetPoint"/>
          </mxGeometry>
        </mxCell>
        <mxCell id="tPRsiFmyDKU2fb7vzfHu-264" value="y2(4)" style="text;html=1;resizable=0;points=[];autosize=1;align=left;verticalAlign=top;spacingTop=-4;" parent="1" vertex="1">
          <mxGeometry x="561" y="1610" width="40" height="20" as="geometry"/>
        </mxCell>
        <mxCell id="tPRsiFmyDKU2fb7vzfHu-265" value="" style="endArrow=none;html=1;" parent="1" edge="1">
          <mxGeometry width="50" height="50" relative="1" as="geometry">
            <mxPoint x="561" y="1630" as="sourcePoint"/>
            <mxPoint x="601" y="1630" as="targetPoint"/>
          </mxGeometry>
        </mxCell>
        <mxCell id="tPRsiFmyDKU2fb7vzfHu-266" value="" style="endArrow=none;html=1;" parent="1" edge="1">
          <mxGeometry width="50" height="50" relative="1" as="geometry">
            <mxPoint x="681" y="1649" as="sourcePoint"/>
            <mxPoint x="920" y="1649" as="targetPoint"/>
          </mxGeometry>
        </mxCell>
        <mxCell id="tPRsiFmyDKU2fb7vzfHu-267" value="&lt;font style=&quot;font-size: 26px&quot;&gt;&amp;amp;&lt;/font&gt;" style="rounded=0;whiteSpace=wrap;html=1;" parent="1" vertex="1">
          <mxGeometry x="161" y="1078.5" width="80" height="120" as="geometry"/>
        </mxCell>
        <mxCell id="tPRsiFmyDKU2fb7vzfHu-268" value="" style="endArrow=none;html=1;" parent="1" edge="1">
          <mxGeometry width="50" height="50" relative="1" as="geometry">
            <mxPoint x="241" y="1137.5" as="sourcePoint"/>
            <mxPoint x="281.0000000000002" y="1137.5" as="targetPoint"/>
          </mxGeometry>
        </mxCell>
        <mxCell id="tPRsiFmyDKU2fb7vzfHu-269" value="&lt;font style=&quot;font-size: 26px&quot;&gt;1&lt;/font&gt;" style="rounded=0;whiteSpace=wrap;html=1;" parent="1" vertex="1">
          <mxGeometry x="281" y="1078.5" width="80" height="120" as="geometry"/>
        </mxCell>
        <mxCell id="tPRsiFmyDKU2fb7vzfHu-270" value="" style="endArrow=none;html=1;" parent="1" edge="1">
          <mxGeometry width="50" height="50" relative="1" as="geometry">
            <mxPoint x="261.0000000000002" y="1218.5" as="sourcePoint"/>
            <mxPoint x="261.0000000000002" y="1168.5" as="targetPoint"/>
          </mxGeometry>
        </mxCell>
        <mxCell id="tPRsiFmyDKU2fb7vzfHu-271" value="" style="endArrow=none;html=1;" parent="1" edge="1">
          <mxGeometry width="50" height="50" relative="1" as="geometry">
            <mxPoint x="261.0000000000002" y="1168.5" as="sourcePoint"/>
            <mxPoint x="281.0000000000002" y="1168.5" as="targetPoint"/>
          </mxGeometry>
        </mxCell>
        <mxCell id="tPRsiFmyDKU2fb7vzfHu-272" value="" style="shape=mxgraph.bpmn.shape;html=1;verticalLabelPosition=bottom;labelBackgroundColor=#ffffff;verticalAlign=top;align=center;perimeter=ellipsePerimeter;outlineConnect=0;outline=end;symbol=general;" parent="1" vertex="1">
          <mxGeometry x="356" y="1128.5" width="10" height="10" as="geometry"/>
        </mxCell>
        <mxCell id="tPRsiFmyDKU2fb7vzfHu-273" value="!S2(6)" style="text;html=1;resizable=0;points=[];autosize=1;align=left;verticalAlign=top;spacingTop=-4;" parent="1" vertex="1">
          <mxGeometry x="401" y="1111.5" width="50" height="20" as="geometry"/>
        </mxCell>
        <mxCell id="tPRsiFmyDKU2fb7vzfHu-274" value="" style="endArrow=none;html=1;" parent="1" edge="1">
          <mxGeometry width="50" height="50" relative="1" as="geometry">
            <mxPoint x="361.0000000000002" y="1132.5" as="sourcePoint"/>
            <mxPoint x="480" y="1133" as="targetPoint"/>
          </mxGeometry>
        </mxCell>
        <mxCell id="tPRsiFmyDKU2fb7vzfHu-275" value="" style="endArrow=none;html=1;" parent="1" edge="1">
          <mxGeometry width="50" height="50" relative="1" as="geometry">
            <mxPoint x="121" y="1218.5" as="sourcePoint"/>
            <mxPoint x="261.0000000000002" y="1218.5" as="targetPoint"/>
          </mxGeometry>
        </mxCell>
        <mxCell id="tPRsiFmyDKU2fb7vzfHu-276" value="y1(2)" style="text;html=1;resizable=0;points=[];autosize=1;align=left;verticalAlign=top;spacingTop=-4;" parent="1" vertex="1">
          <mxGeometry x="121" y="1198.5" width="40" height="20" as="geometry"/>
        </mxCell>
        <mxCell id="tPRsiFmyDKU2fb7vzfHu-277" value="t2(1)" style="text;html=1;resizable=0;points=[];autosize=1;align=left;verticalAlign=top;spacingTop=-4;" parent="1" vertex="1">
          <mxGeometry x="121" y="1139.5" width="40" height="20" as="geometry"/>
        </mxCell>
        <mxCell id="tPRsiFmyDKU2fb7vzfHu-278" value="" style="endArrow=none;html=1;" parent="1" edge="1">
          <mxGeometry width="50" height="50" relative="1" as="geometry">
            <mxPoint x="121" y="1158.5" as="sourcePoint"/>
            <mxPoint x="161" y="1158.5" as="targetPoint"/>
          </mxGeometry>
        </mxCell>
        <mxCell id="tPRsiFmyDKU2fb7vzfHu-279" value="y2(4)" style="text;html=1;resizable=0;points=[];autosize=1;align=left;verticalAlign=top;spacingTop=-4;" parent="1" vertex="1">
          <mxGeometry x="121" y="1098.5" width="40" height="20" as="geometry"/>
        </mxCell>
        <mxCell id="tPRsiFmyDKU2fb7vzfHu-280" value="" style="endArrow=none;html=1;" parent="1" edge="1">
          <mxGeometry width="50" height="50" relative="1" as="geometry">
            <mxPoint x="121" y="1118.5" as="sourcePoint"/>
            <mxPoint x="161" y="1118.5" as="targetPoint"/>
          </mxGeometry>
        </mxCell>
        <mxCell id="tPRsiFmyDKU2fb7vzfHu-281" value="9" style="text;html=1;resizable=0;points=[];autosize=1;align=left;verticalAlign=top;spacingTop=-4;" parent="1" vertex="1">
          <mxGeometry x="251" y="1118.5" width="20" height="20" as="geometry"/>
        </mxCell>
        <mxCell id="9PLsXgue-BdrBz2FZFU0-1" value="" style="endArrow=none;html=1;" edge="1" parent="1">
          <mxGeometry width="50" height="50" relative="1" as="geometry">
            <mxPoint x="160" y="1800" as="sourcePoint"/>
            <mxPoint x="161" y="1760" as="targetPoint"/>
          </mxGeometry>
        </mxCell>
        <mxCell id="9PLsXgue-BdrBz2FZFU0-2" value="c(8)" style="text;html=1;resizable=0;points=[];autosize=1;align=left;verticalAlign=top;spacingTop=-4;" vertex="1" parent="1">
          <mxGeometry x="130" y="1770" width="40" height="20" as="geometry"/>
        </mxCell>
        <mxCell id="9PLsXgue-BdrBz2FZFU0-3" value="" style="endArrow=none;html=1;" edge="1" parent="1">
          <mxGeometry width="50" height="50" relative="1" as="geometry">
            <mxPoint x="201" y="1800" as="sourcePoint"/>
            <mxPoint x="202" y="1760" as="targetPoint"/>
          </mxGeometry>
        </mxCell>
        <mxCell id="9PLsXgue-BdrBz2FZFU0-4" value="t2(1)" style="text;html=1;resizable=0;points=[];autosize=1;align=left;verticalAlign=top;spacingTop=-4;" vertex="1" parent="1">
          <mxGeometry x="171" y="1770" width="40" height="20" as="geometry"/>
        </mxCell>
        <mxCell id="9PLsXgue-BdrBz2FZFU0-5" value="" style="endArrow=none;html=1;" edge="1" parent="1">
          <mxGeometry width="50" height="50" relative="1" as="geometry">
            <mxPoint x="240" y="1800" as="sourcePoint"/>
            <mxPoint x="241" y="1760" as="targetPoint"/>
          </mxGeometry>
        </mxCell>
        <mxCell id="9PLsXgue-BdrBz2FZFU0-6" value="y1(2)" style="text;html=1;resizable=0;points=[];autosize=1;align=left;verticalAlign=top;spacingTop=-4;" vertex="1" parent="1">
          <mxGeometry x="210" y="1770" width="40" height="20" as="geometry"/>
        </mxCell>
        <mxCell id="9PLsXgue-BdrBz2FZFU0-7" value="" style="endArrow=none;html=1;" edge="1" parent="1">
          <mxGeometry width="50" height="50" relative="1" as="geometry">
            <mxPoint x="285" y="1800" as="sourcePoint"/>
            <mxPoint x="286" y="1760" as="targetPoint"/>
          </mxGeometry>
        </mxCell>
        <mxCell id="9PLsXgue-BdrBz2FZFU0-8" value="t1(3)" style="text;html=1;resizable=0;points=[];autosize=1;align=left;verticalAlign=top;spacingTop=-4;" vertex="1" parent="1">
          <mxGeometry x="255" y="1770" width="40" height="20" as="geometry"/>
        </mxCell>
        <mxCell id="9PLsXgue-BdrBz2FZFU0-9" value="" style="endArrow=none;html=1;" edge="1" parent="1">
          <mxGeometry width="50" height="50" relative="1" as="geometry">
            <mxPoint x="640" y="1800" as="sourcePoint"/>
            <mxPoint x="641" y="1760" as="targetPoint"/>
          </mxGeometry>
        </mxCell>
        <mxCell id="9PLsXgue-BdrBz2FZFU0-10" value="y2(4)" style="text;html=1;resizable=0;points=[];autosize=1;align=left;verticalAlign=top;spacingTop=-4;" vertex="1" parent="1">
          <mxGeometry x="610" y="1770" width="40" height="20" as="geometry"/>
        </mxCell>
        <mxCell id="9PLsXgue-BdrBz2FZFU0-11" value="" style="endArrow=none;html=1;" edge="1" parent="1">
          <mxGeometry width="50" height="50" relative="1" as="geometry">
            <mxPoint x="681" y="1800" as="sourcePoint"/>
            <mxPoint x="682" y="1760" as="targetPoint"/>
          </mxGeometry>
        </mxCell>
        <mxCell id="9PLsXgue-BdrBz2FZFU0-12" value="y3(12)" style="text;html=1;resizable=0;points=[];autosize=1;align=left;verticalAlign=top;spacingTop=-4;" vertex="1" parent="1">
          <mxGeometry x="645.5" y="1770" width="50" height="20" as="geometry"/>
        </mxCell>
        <mxCell id="9PLsXgue-BdrBz2FZFU0-13" value="" style="endArrow=none;html=1;" edge="1" parent="1">
          <mxGeometry width="50" height="50" relative="1" as="geometry">
            <mxPoint x="720" y="1800" as="sourcePoint"/>
            <mxPoint x="721" y="1760" as="targetPoint"/>
          </mxGeometry>
        </mxCell>
        <mxCell id="9PLsXgue-BdrBz2FZFU0-14" value="!y0(5)" style="text;html=1;resizable=0;points=[];autosize=1;align=left;verticalAlign=top;spacingTop=-4;" vertex="1" parent="1">
          <mxGeometry x="690" y="1770" width="50" height="20" as="geometry"/>
        </mxCell>
        <mxCell id="9PLsXgue-BdrBz2FZFU0-15" value="" style="endArrow=none;html=1;" edge="1" parent="1">
          <mxGeometry width="50" height="50" relative="1" as="geometry">
            <mxPoint x="765" y="1800" as="sourcePoint"/>
            <mxPoint x="766" y="1760" as="targetPoint"/>
          </mxGeometry>
        </mxCell>
        <mxCell id="9PLsXgue-BdrBz2FZFU0-16" value="t3(1)" style="text;html=1;resizable=0;points=[];autosize=1;align=left;verticalAlign=top;spacingTop=-4;" vertex="1" parent="1">
          <mxGeometry x="735" y="1770" width="40" height="20" as="geometry"/>
        </mxCell>
      </root>
    </mxGraphModel>
  </diagram>
</mxfile>
